<?xml version="1.0" encoding="utf-8"?>
<!-- Generator: Avocode 2.6.0 - http://avocode.com -->
<svg height="100" width="100" xmlns:xlink="http://www.w3.org/1999/xlink" xmlns="http://www.w3.org/2000/svg" viewBox="0 0 100 100">
    <path fill="#f1f2f7" fill-rule="evenodd" d="M 50 100 C 77.61 100 100 77.61 100 50 C 100 22.39 77.61 0 50 0 C 22.39 0 0 22.39 0 50 C 0 77.61 22.39 100 50 100 Z M 50 100" />
    <path fill="#dcdde4" fill-rule="evenodd" d="M 39.08 72.99 L 39.08 79.01 L 66.84 79.01 L 66.84 60.71 C 71.26 56.44 73.78 50.56 73.78 44.46 C 73.78 32.03 63.64 21.89 51.21 21.89 C 47.85 21.89 44.57 22.65 41.6 24.03 C 33.67 27.69 28.56 35.77 28.56 44.46 L 28.56 47.67 L 24.36 55.67 C 23.6 57.05 23.6 58.5 24.29 59.64 C 24.97 60.71 26.27 61.39 27.8 61.39 L 28.56 61.39 L 28.56 68.03 C 28.56 71.23 31.15 73.75 34.28 73.75 L 39.08 72.99 L 39.08 72.99 Z M 39.08 72.99" />
</svg>