<?xml version="1.0" encoding="utf-8"?>
<!-- Generator: Avocode 2.6.0 - http://avocode.com -->
<svg height="100" width="100" xmlns:xlink="http://www.w3.org/1999/xlink" xmlns="http://www.w3.org/2000/svg" viewBox="0 0 100 100">
    <path fill="#f1f2f7" fill-rule="evenodd" d="M 50 100 C 77.61 100 100 77.61 100 50 C 100 22.39 77.61 0 50 0 C 22.39 0 0 22.39 0 50 C 0 77.61 22.39 100 50 100 Z M 50 100" />
    <path fill="#a6abbb" fill-rule="evenodd" d="M 65.36 59.28 C 65.36 61.51 64.68 63.43 63.31 65.03 C 61.94 66.63 60.05 67.7 57.64 68.24 C 55.73 68.68 53.93 68.93 52.24 69 C 50.55 69.07 45.58 69.11 37.34 69.11 C 36.19 69.11 35.5 69.09 35.29 69.05 C 35.07 69.02 34.96 68.89 34.96 68.68 C 34.96 68.35 35.55 68.19 36.72 68.19 C 37.89 68.19 38.62 68.02 38.9 67.68 C 39.19 67.33 39.34 66.5 39.34 65.17 L 39.28 34.28 C 39.28 33.23 38.45 32.69 36.8 32.66 C 35.54 32.62 34.91 32.46 34.91 32.17 C 34.91 31.85 35.3 31.69 36.1 31.69 C 36.85 31.76 37.59 31.79 38.31 31.79 L 51.27 31.79 C 59.59 31.79 63.74 34.64 63.74 40.33 C 63.74 45.04 60.65 47.96 54.46 49.07 L 54.35 49.29 C 57.98 50.05 60.5 51 61.91 52.15 C 64.21 54.06 65.36 56.44 65.36 59.28 L 65.36 59.28 Z M 55.75 40.54 C 55.75 35.32 54.13 32.71 50.89 32.71 C 49.74 32.71 48.97 32.77 48.57 32.87 C 47.78 33.13 47.38 33.68 47.38 34.55 L 47.38 48.8 C 50.59 48.8 52.78 48.25 53.97 47.13 C 55.16 46.01 55.75 43.82 55.75 40.54 L 55.75 40.54 Z M 56.72 59.01 C 56.72 53.93 55.27 50.98 52.35 50.15 C 51.2 49.83 49.54 49.67 47.38 49.67 L 47.49 52.8 C 47.49 53.7 47.45 54.98 47.38 56.63 C 47.35 57.46 47.33 59.01 47.33 61.28 C 47.33 65.17 47.44 67.24 47.65 67.49 C 47.94 67.88 48.75 68.08 50.08 68.08 C 54.51 68.08 56.72 65.06 56.72 59.01 L 56.72 59.01 Z M 56.72 59.01" />
</svg>