<?xml version="1.0" encoding="UTF-8" standalone="no"?>
<svg width="280px" height="39px" viewBox="0 0 280 39" version="1.1" xmlns="http://www.w3.org/2000/svg" xmlns:xlink="http://www.w3.org/1999/xlink">
    <!-- Generator: Sketch 3.7 (28169) - http://www.bohemiancoding.com/sketch -->
    <title>BLEVOGUE</title>
    <desc>Created with Sketch.</desc>
    <defs></defs>
    <g id="Page-1" stroke="none" stroke-width="1" fill="none" fill-rule="evenodd">
        <g id="404-page-" transform="translate(-580.000000, -245.000000)" fill="#FFFFFF">
            <g id="Group" transform="translate(498.000000, 245.000000)">
                <path d="M112.596244,28.2710001 C112.596244,30.5050779 111.911618,32.4238337 110.542344,34.0273251 C109.173071,35.6308164 107.281339,36.7027973 104.867094,37.2433 C102.957318,37.6757022 101.155669,37.927933 99.4620942,38 C97.7685191,38.072067 92.7959689,38.1081 84.5442944,38.1081 C83.391222,38.1081 82.7065955,38.0900835 82.4903944,38.05405 C82.2741934,38.0180165 82.1660944,37.8919011 82.1660944,37.6757 C82.1660944,37.3513984 82.7516302,37.18925 83.9227194,37.18925 C85.0938086,37.18925 85.8234763,37.0180934 86.1117444,36.675775 C86.4000125,36.3334566 86.5441444,35.49569 86.5441444,34.1624501 L86.4900944,3.24585049 C86.4900944,2.20087861 85.661336,1.66038403 84.0037944,1.62435051 C82.7426215,1.588317 82.1120444,1.42616862 82.1120444,1.13790052 C82.1120444,0.813598903 82.5084071,0.651450527 83.3011444,0.651450527 C84.0578482,0.723517553 84.7965241,0.759550526 85.5171944,0.759550526 L98.4891942,0.759550526 C106.812936,0.759550526 110.974744,3.60615535 110.974744,9.29945041 C110.974744,14.0198406 107.875908,16.9385114 101.678144,18.0555503 L101.570044,18.2717503 C105.209429,19.0284541 107.731737,19.9833278 109.137044,21.1364002 C111.443189,23.0461764 112.596244,25.4243526 112.596244,28.2710001 L112.596244,28.2710001 Z M102.975344,9.5156504 C102.975344,4.29079102 101.35386,1.67840051 98.1108442,1.67840051 C96.9577718,1.67840051 96.1830629,1.73244997 95.7866942,1.84055051 C94.993957,2.0927851 94.5975943,2.65129617 94.5975943,3.51610049 L94.5975943,17.7853003 C97.8045769,17.7853003 100.002588,17.2267892 101.191694,16.1097503 C102.3808,14.9927114 102.975344,12.7947001 102.975344,9.5156504 L102.975344,9.5156504 Z M103.948244,28.0007501 C103.948244,22.9200248 102.488909,19.9653211 99.5701942,19.1365503 C98.4171218,18.8122486 96.759605,18.6501003 94.5975943,18.6501003 L94.7056943,21.7850002 C94.7056943,22.6858381 94.6696613,23.9650086 94.5975943,25.6225502 C94.5615608,26.451321 94.5435443,28.0007388 94.5435443,30.2708501 C94.5435443,34.1624695 94.6516432,36.2343654 94.8678443,36.4866 C95.1561124,36.8829687 95.9668542,37.08115 97.3000942,37.08115 C101.732216,37.08115 103.948244,34.0543803 103.948244,28.0007501 L103.948244,28.0007501 Z M146.987214,28.8655501 C146.987214,29.5501869 146.969198,30.1267144 146.933164,30.5951501 C146.78903,32.1806247 146.734981,33.4597952 146.771014,34.4327001 L146.825064,38.27025 C142.212775,38.0900824 133.871141,38 121.799915,38 L119.529815,38 C117.94434,38 117.151615,37.8558681 117.151615,37.5676 C117.151615,37.2793319 117.403845,37.1352 117.908315,37.1352 C119.70999,37.0991665 120.863045,36.8469357 121.367515,36.3785 C121.691816,36.0902319 121.853965,35.2254406 121.853965,33.7841001 L121.799915,4.48900047 C121.799915,3.26386103 121.691816,2.50716861 121.475615,2.21890051 C121.043212,1.67839781 120.376602,1.426167 119.475765,1.46220052 L118.124515,1.51625051 C117.728146,1.51625051 117.529965,1.37211863 117.529965,1.08385052 C117.529965,0.795582417 117.782195,0.651450527 118.286665,0.651450527 C118.574933,0.651450527 118.863196,0.669467013 119.151465,0.705500526 L132.880164,0.705500526 C133.060332,0.669467013 133.258513,0.651450527 133.474714,0.651450527 C133.835049,0.651450527 134.015214,0.795582417 134.015214,1.08385052 C134.015214,1.40815214 133.546786,1.57030051 132.609914,1.57030051 C131.276674,1.57030051 130.492957,1.73244889 130.258739,2.05675051 C130.024522,2.38105212 129.907414,3.80435454 129.907414,6.32670045 L129.907414,19.1906003 C129.907414,21.8210467 129.97948,27.7124377 130.123614,36.86495 C130.808251,36.9009835 131.58296,36.919 132.447764,36.919 C136.231283,36.919 138.843674,36.7748681 140.285014,36.4866 C142.555126,36.0181644 144.104543,34.8651092 144.933314,33.0274001 C145.365716,32.0905287 145.762079,30.5951604 146.122414,28.5412501 C146.230515,27.9647139 146.392663,27.6764501 146.608864,27.6764501 C146.861099,27.6764501 146.987214,28.0728128 146.987214,28.8655501 L146.987214,28.8655501 Z M180.243134,28.5412501 C180.243134,28.6133172 180.225118,30.2888504 180.189084,33.5679001 C180.153051,35.2975087 180.126026,36.5406462 180.108009,37.29735 C180.089993,38.0540538 180.080984,38.4143835 180.080984,38.37835 C170.568137,37.9459478 162.24452,37.8198324 155.109885,38 L150.569685,38.1081 C149.921082,38.1081 149.596785,37.9639681 149.596785,37.6757 C149.596785,37.4594989 149.677859,37.3333835 149.84001,37.29735 C150.002161,37.2613165 150.551663,37.207267 151.488535,37.1352 C153.18211,37.0270995 154.100951,36.5406543 154.245085,35.67585 C154.317152,35.2074144 154.353185,34.6849363 154.353185,34.1084001 L154.353185,6.70505044 C154.353185,4.54303966 154.335168,3.35395157 154.299135,3.13775049 C154.263101,2.56121428 154.082936,2.16485159 153.758635,1.94865051 C153.434333,1.73244943 152.767723,1.62435051 151.758785,1.62435051 C150.641746,1.62435051 150.083235,1.46220214 150.083235,1.13790052 C150.083235,0.77756539 150.578688,0.597400528 151.56961,0.597400528 C152.560531,0.597400528 153.938793,0.579384042 155.704435,0.543350529 C162.334601,0.399216477 167.757563,0.363183504 171.973484,0.43525053 L175.648884,0.489300529 C176.441622,0.489300529 177.414512,0.417234584 178.567584,0.273100533 L179.054034,6.16455045 C179.234202,8.03829312 179.324284,9.19134824 179.324284,9.6237504 C179.324284,9.98408553 179.144119,10.1642504 178.783784,10.1642504 C178.423449,10.1642504 178.189235,9.69582175 178.081134,8.75895041 C177.756833,6.27263802 176.756918,4.46198115 175.081359,3.32692549 C173.405801,2.19186983 170.928534,1.62435051 167.649485,1.62435051 C166.640546,1.62435051 164.910963,1.67839997 162.460685,1.78650051 L162.460685,17.7312503 C166.424371,17.7672838 168.919654,17.4880283 169.946609,16.8934753 C170.973565,16.2989223 171.667199,14.7585128 172.027534,12.2722004 C172.207702,10.9389604 172.477949,10.2723504 172.838284,10.2723504 C173.162586,10.2723504 173.324734,10.5966471 173.324734,11.2452504 C173.324734,11.8938536 173.270685,13.2270736 173.162584,15.2449503 C173.126551,15.9295871 173.108534,16.8484279 173.108534,18.0015003 C173.108534,21.1003824 173.144567,23.4425256 173.216634,25.0280002 C173.252668,25.2442013 173.270684,25.5144486 173.270684,25.8387502 C173.270684,26.2711523 173.108536,26.4873502 172.784234,26.4873502 C172.532,26.4873502 172.369851,26.406276 172.297784,26.2441252 C172.225717,26.0819744 172.117618,25.4964386 171.973484,24.4875002 C171.613149,21.9291208 171.117696,20.3346617 170.487109,19.7040753 C169.856523,19.0734888 168.406196,18.7582003 166.136085,18.7582003 L162.460685,18.7582003 L162.460685,36.97305 L165.919885,36.919 C169.883571,36.846933 172.29778,36.7568506 173.162584,36.64875 C174.24359,36.504616 175.288546,36.1082533 176.297484,35.45965 C177.198322,34.7389798 177.819891,33.9642709 178.162209,33.1355001 C178.504528,32.3067293 178.873866,30.7753279 179.270234,28.5412501 C179.378335,28.0007474 179.5585,27.7305001 179.810734,27.7305001 C180.099002,27.7305001 180.243134,28.0007474 180.243134,28.5412501 L180.243134,28.5412501 Z M216.850154,1.08385052 C216.850154,1.33608511 216.66999,1.480217 216.309654,1.51625051 C214.399878,1.58831754 213.201782,1.80451538 212.71533,2.16485051 C212.228877,2.52518564 211.697391,3.55212535 211.120855,5.24570046 C210.832586,6.03843775 210.400191,7.24554233 209.823655,8.86705041 C207.913878,14.1639768 204.833059,23.100154 200.581105,35.67585 C200.004568,37.4775257 199.590189,38.37835 199.337955,38.37835 C199.013653,38.37835 198.743406,38.0540532 198.527205,37.40545 C198.058769,35.928076 197.464225,34.2525428 196.743555,32.3788001 C195.662549,29.4600855 194.203214,25.586541 192.365505,20.7580502 C191.572768,18.632073 190.347646,15.4791879 188.690105,11.2993004 C187.789267,9.02918906 186.888443,6.50688098 185.987605,3.73230048 C185.519169,2.21889294 184.546279,1.480217 183.068905,1.51625051 L181.285255,1.57030051 C180.852853,1.57030051 180.636655,1.40815214 180.636655,1.08385052 C180.636655,0.759548904 181.285248,0.597400528 182.582455,0.597400528 L191.716905,0.651450527 L193.176255,0.651450527 C193.788825,0.615417014 194.473451,0.597400528 195.230155,0.597400528 L198.256955,0.597400528 C198.941591,0.597400528 199.283905,0.759548904 199.283905,1.08385052 C199.283905,1.37211863 198.653328,1.534267 197.392155,1.57030051 C195.338244,1.60633403 194.311305,1.93063078 194.311305,2.5432005 C194.311305,2.61526753 194.617585,3.5701413 195.230155,5.40785046 C197.968702,13.6234914 200.382911,20.3436408 202.472855,25.5685002 C202.94129,24.4154278 203.806082,22.0192351 205.067255,18.3798503 C205.391556,17.4069454 206.148249,15.2089341 207.337355,11.7857504 C209.03093,6.84915909 209.877705,3.84040589 209.877705,2.7594005 C209.877705,2.11079726 209.607457,1.73245105 209.066955,1.62435051 C208.850753,1.588317 208.021995,1.55228403 206.580655,1.51625051 C205.859984,1.51625051 205.499655,1.33608565 205.499655,0.975750523 C205.499655,0.651448906 205.751885,0.489300529 206.256355,0.489300529 L208.796705,0.489300529 L210.688455,0.543350529 L212.093755,0.543350529 C212.45409,0.543350529 212.868469,0.525334042 213.336904,0.489300529 L215.066504,0.489300529 L216.039404,0.489300529 C216.579907,0.489300529 216.850154,0.687481878 216.850154,1.08385052 L216.850154,1.08385052 Z M252.862625,19.3527503 C252.862625,24.7577772 251.178083,29.3249565 247.80895,33.0544251 C244.439816,36.7838937 240.305033,38.6486 235.404475,38.6486 C230.612018,38.6486 226.504259,36.7568689 223.081075,32.9733501 C219.657891,29.1898312 217.946325,24.6316602 217.946325,19.2987003 C217.946325,13.8216063 219.648883,9.24541878 223.05405,5.57000046 C226.459217,1.89458213 230.684083,0.0569005356 235.728775,0.0569005356 C240.593299,0.0569005356 244.665025,1.90359038 247.944075,5.59702546 C251.223124,9.29046054 252.862625,13.8756563 252.862625,19.3527503 L252.862625,19.3527503 Z M243.349825,20.2175503 C243.349825,13.0468812 242.50305,7.75003421 240.809475,4.32685048 C239.692436,2.09277267 237.92682,0.975750523 235.512575,0.975750523 C233.062296,0.975750523 231.107507,2.54318483 229.64815,5.67810046 C228.188793,8.81301609 227.459125,13.0108574 227.459125,18.2717503 C227.459125,25.910855 228.756312,31.6220812 231.350725,35.4056 C232.43173,36.9910746 233.999165,37.7838 236.053075,37.7838 C238.431287,37.7838 240.10682,36.6487614 241.079725,34.3786501 C242.593132,30.8473658 243.349825,26.1270464 243.349825,20.2175503 L243.349825,20.2175503 Z M293.307195,26.3252002 C293.307195,26.6855353 292.622568,26.8476837 291.253295,26.8116502 C289.631787,26.7756166 288.766995,27.1359464 288.658895,27.8926501 C288.586828,28.3250523 288.550795,29.7483547 288.550795,32.1626001 C288.550795,32.9913709 288.568811,33.7300468 288.604845,34.3786501 C284.316857,37.2973646 280.227114,38.7567 276.335495,38.7567 C271.218736,38.7567 266.939821,36.9550514 263.49862,33.3517001 C260.05742,29.7483488 258.336845,25.2622437 258.336845,19.8932503 C258.336845,14.1999552 260.102461,9.46161932 263.633745,5.67810046 C267.165029,1.89458159 271.597085,0.00285053635 276.930045,0.00285053635 C279.128089,0.00285053635 281.398166,0.543345124 283.740345,1.62435051 C284.605149,2.02071916 285.199693,2.21890051 285.523995,2.21890051 C286.100531,2.21890051 286.586976,1.78650484 286.983345,0.921700523 C287.163512,0.489298367 287.361694,0.273100533 287.577895,0.273100533 C287.830129,0.273100533 287.956245,0.453265395 287.956245,0.813600525 C287.956245,0.885667551 287.902195,1.606327 287.794095,2.97560049 C287.758061,3.40800265 287.740045,4.43494237 287.740045,6.05645045 C287.740045,7.28158989 287.776078,8.52472744 287.848145,9.7859004 C287.920212,11.0470734 287.956245,11.6776504 287.956245,11.6776504 C287.956245,12.3622871 287.77608,12.7046004 287.415745,12.7046004 C286.911276,12.7046004 286.568962,11.9839409 286.388795,10.5426004 C285.956393,7.37165124 284.911436,4.86735966 283.253895,3.02965049 C282.028755,1.69641051 280.317189,1.02980052 278.119145,1.02980052 C271.308811,1.02980052 267.903695,7.0833399 267.903695,19.1906003 C267.903695,26.7216045 269.020717,31.964402 271.254795,34.91915 C272.660102,36.7928927 274.533817,37.72975 276.875995,37.72975 C279.830743,37.72975 281.308095,35.8560354 281.308095,32.1085501 C281.308095,29.2979361 281.190988,27.7214935 280.95677,27.3791751 C280.722552,27.0368568 280.119,26.8657002 279.146095,26.8657002 L277.794845,26.8657002 C277.038141,26.8657002 276.659795,26.7035518 276.659795,26.3792502 C276.659795,26.0549485 276.966075,25.8928002 277.578645,25.8928002 C278.839818,25.8928002 280.425269,25.9108167 282.335045,25.9468502 L285.794245,26.0009002 C286.478881,26.0009002 287.568879,25.9738754 289.06427,25.9198252 C290.55966,25.8657749 291.523543,25.8387502 291.955945,25.8387502 L292.658595,25.8387502 C293.090997,25.8387502 293.307195,26.0008985 293.307195,26.3252002 L293.307195,26.3252002 Z M328.617015,1.13790052 C328.617015,1.42616862 328.004454,1.588317 326.779315,1.62435051 C325.265907,1.66038403 324.347066,1.91261483 324.022765,2.3810505 C323.914664,2.52518455 323.842598,2.83146482 323.806565,3.29990049 L323.806565,26.1630502 C323.806565,34.6669592 319.734839,38.91885 311.591265,38.91885 C307.411378,38.91885 304.16841,37.6396795 301.862265,35.0813 C300.132657,33.1715239 299.267865,29.7844244 299.267865,24.9199002 L299.267865,4.16470048 C299.267865,3.01162806 299.0877,2.3089851 298.727365,2.05675051 C298.36703,1.80451592 297.231991,1.60633457 295.322215,1.46220052 C294.925847,1.426167 294.727665,1.28203511 294.727665,1.02980052 C294.727665,0.705498905 295.051962,0.543350529 295.700565,0.543350529 L296.132965,0.543350529 C296.457267,0.579384042 296.727514,0.597400528 296.943715,0.597400528 L300.294815,0.651450527 C303.465764,0.68748404 305.807908,0.68748404 307.321315,0.651450527 C309.339192,0.615417014 310.131917,0.597400528 309.699515,0.597400528 L310.834565,0.597400528 C311.447135,0.597400528 311.753415,0.77756539 311.753415,1.13790052 C311.753415,1.46220214 311.194904,1.62435051 310.077865,1.62435051 C308.49239,1.62435051 307.645616,1.91261429 307.537515,2.4891505 C307.465448,2.88551914 307.429415,3.26386536 307.429415,3.62420049 L307.429415,23.8389002 C307.429415,26.7576148 307.483465,28.6133128 307.591565,29.4060501 C307.8438,31.7482285 308.51041,33.4417782 309.591415,34.48675 C310.924655,35.7839565 312.672254,36.43255 314.834265,36.43255 C317.284544,36.43255 319.086192,35.6398246 320.239265,34.0543501 C321.644572,32.1445739 322.347215,28.7214415 322.347215,23.7848502 L322.347215,5.94835045 C322.347215,5.62404884 322.365231,5.20966965 322.401265,4.70520047 L322.401265,3.78635048 C322.401265,2.84947915 322.131018,2.23691861 321.590515,1.94865051 C321.23018,1.73244943 320.527537,1.62435051 319.482565,1.62435051 C318.185358,1.588317 317.536765,1.37211917 317.536765,0.975750523 C317.536765,0.687482419 317.788996,0.543350529 318.293465,0.543350529 C318.833968,0.543350529 319.626693,0.570375258 320.671665,0.624425528 C321.716637,0.678475797 322.509362,0.705500526 323.049865,0.705500526 C323.085898,0.705500526 323.392179,0.68748404 323.968715,0.651450527 L325.644265,0.651450527 L326.941465,0.651450527 C328.058504,0.651450527 328.617015,0.813598903 328.617015,1.13790052 L328.617015,1.13790052 Z M361.116235,28.5412501 C361.116235,28.6133172 361.098218,30.2888504 361.062185,33.5679001 C361.026151,35.2975087 360.999127,36.5406462 360.98111,37.29735 C360.963093,38.0540538 360.954085,38.4143835 360.954085,38.37835 C351.441238,37.9459478 343.117621,37.8198324 335.982985,38 L331.442785,38.1081 C330.794182,38.1081 330.469885,37.9639681 330.469885,37.6757 C330.469885,37.4594989 330.55096,37.3333835 330.71311,37.29735 C330.875261,37.2613165 331.424764,37.207267 332.361635,37.1352 C334.05521,37.0270995 334.974051,36.5406543 335.118185,35.67585 C335.190252,35.2074144 335.226285,34.6849363 335.226285,34.1084001 L335.226285,6.70505044 C335.226285,4.54303966 335.208269,3.35395157 335.172235,3.13775049 C335.136202,2.56121428 334.956037,2.16485159 334.631735,1.94865051 C334.307434,1.73244943 333.640824,1.62435051 332.631885,1.62435051 C331.514846,1.62435051 330.956335,1.46220214 330.956335,1.13790052 C330.956335,0.77756539 331.451789,0.597400528 332.44271,0.597400528 C333.433632,0.597400528 334.811893,0.579384042 336.577535,0.543350529 C343.207702,0.399216477 348.630664,0.363183504 352.846585,0.43525053 L356.521985,0.489300529 C357.314722,0.489300529 358.287613,0.417234584 359.440685,0.273100533 L359.927135,6.16455045 C360.107303,8.03829312 360.197385,9.19134824 360.197385,9.6237504 C360.197385,9.98408553 360.01722,10.1642504 359.656885,10.1642504 C359.29655,10.1642504 359.062336,9.69582175 358.954235,8.75895041 C358.629933,6.27263802 357.630018,4.46198115 355.95446,3.32692549 C354.278902,2.19186983 351.801635,1.62435051 348.522585,1.62435051 C347.513647,1.62435051 345.784064,1.67839997 343.333785,1.78650051 L343.333785,17.7312503 C347.297472,17.7672838 349.792755,17.4880283 350.81971,16.8934753 C351.846665,16.2989223 352.5403,14.7585128 352.900635,12.2722004 C353.080803,10.9389604 353.35105,10.2723504 353.711385,10.2723504 C354.035687,10.2723504 354.197835,10.5966471 354.197835,11.2452504 C354.197835,11.8938536 354.143786,13.2270736 354.035685,15.2449503 C353.999652,15.9295871 353.981635,16.8484279 353.981635,18.0015003 C353.981635,21.1003824 354.017668,23.4425256 354.089735,25.0280002 C354.125769,25.2442013 354.143785,25.5144486 354.143785,25.8387502 C354.143785,26.2711523 353.981637,26.4873502 353.657335,26.4873502 C353.4051,26.4873502 353.242952,26.406276 353.170885,26.2441252 C353.098818,26.0819744 352.990719,25.4964386 352.846585,24.4875002 C352.48625,21.9291208 351.990797,20.3346617 351.36021,19.7040753 C350.729624,19.0734888 349.279296,18.7582003 347.009185,18.7582003 L343.333785,18.7582003 L343.333785,36.97305 L346.792985,36.919 C350.756672,36.846933 353.170881,36.7568506 354.035685,36.64875 C355.11669,36.504616 356.161647,36.1082533 357.170585,35.45965 C358.071423,34.7389798 358.692992,33.9642709 359.03531,33.1355001 C359.377628,32.3067293 359.746966,30.7753279 360.143335,28.5412501 C360.251436,28.0007474 360.4316,27.7305001 360.683835,27.7305001 C360.972103,27.7305001 361.116235,28.0007474 361.116235,28.5412501 L361.116235,28.5412501 Z" id="BLEVOGUE"></path>
            </g>
        </g>
    </g>
</svg>