<?xml version="1.0" encoding="utf-8"?>
<!-- Generator: Avocode 2.6.0 - http://avocode.com -->
<svg height="25" width="176" xmlns:xlink="http://www.w3.org/1999/xlink" xmlns="http://www.w3.org/2000/svg" viewBox="0 0 176 25">
    <path fill="#000000" fill-rule="evenodd" d="M 19.52 17.88 C 19.52 19.29 19.09 20.49 18.22 21.5 C 17.36 22.51 16.17 23.18 14.65 23.52 C 13.45 23.8 12.32 23.95 11.25 24 C 10.19 24.05 7.06 24.07 1.87 24.07 C 1.14 24.07 0.71 24.06 0.58 24.03 C 0.44 24.01 0.37 23.93 0.37 23.8 C 0.37 23.59 0.74 23.49 1.48 23.49 C 2.22 23.49 2.67 23.38 2.86 23.17 C 3.04 22.95 3.13 22.42 3.13 21.59 L 3.09 2.14 C 3.09 1.48 2.57 1.14 1.53 1.12 C 0.74 1.1 0.34 0.99 0.34 0.81 C 0.34 0.61 0.59 0.51 1.09 0.51 C 1.56 0.55 2.03 0.57 2.48 0.57 L 10.64 0.57 C 15.88 0.57 18.5 2.36 18.5 5.95 C 18.5 8.92 16.55 10.75 12.65 11.45 L 12.58 11.59 C 14.87 12.07 16.46 12.67 17.34 13.39 C 18.79 14.59 19.52 16.09 19.52 17.88 L 19.52 17.88 Z M 13.46 6.08 C 13.46 2.8 12.44 1.15 10.4 1.15 C 9.68 1.15 9.19 1.19 8.94 1.25 C 8.44 1.41 8.19 1.76 8.19 2.31 L 8.19 11.28 C 10.21 11.28 11.59 10.93 12.34 10.23 C 13.09 9.53 13.46 8.14 13.46 6.08 L 13.46 6.08 Z M 14.08 17.71 C 14.08 14.51 13.16 12.66 11.32 12.13 C 10.6 11.93 9.55 11.83 8.19 11.83 L 8.26 13.8 C 8.26 14.37 8.24 15.17 8.19 16.21 C 8.17 16.74 8.16 17.71 8.16 19.14 C 8.16 21.59 8.23 22.89 8.36 23.05 C 8.55 23.3 9.06 23.42 9.89 23.42 C 12.68 23.42 14.08 21.52 14.08 17.71 L 14.08 17.71 Z M 41.1 18.25 C 41.1 18.68 41.08 19.05 41.06 19.34 C 40.97 20.34 40.94 21.14 40.96 21.76 L 40.99 24.17 C 38.09 24.06 32.85 24 25.25 24 L 23.82 24 C 22.83 24 22.33 23.91 22.33 23.73 C 22.33 23.55 22.49 23.46 22.8 23.46 C 23.94 23.43 24.66 23.27 24.98 22.98 C 25.18 22.8 25.29 22.25 25.29 21.35 L 25.25 2.92 C 25.25 2.15 25.18 1.67 25.05 1.49 C 24.78 1.15 24.36 0.99 23.79 1.02 L 22.94 1.05 C 22.69 1.05 22.57 0.96 22.57 0.78 C 22.57 0.6 22.72 0.51 23.04 0.51 C 23.22 0.51 23.4 0.52 23.59 0.54 L 32.22 0.54 C 32.34 0.52 32.46 0.51 32.6 0.51 C 32.82 0.51 32.94 0.6 32.94 0.78 C 32.94 0.98 32.64 1.08 32.05 1.08 C 31.21 1.08 30.72 1.19 30.57 1.39 C 30.43 1.59 30.35 2.49 30.35 4.08 L 30.35 12.17 C 30.35 13.82 30.4 17.53 30.49 23.29 C 30.92 23.31 31.41 23.32 31.95 23.32 C 34.33 23.32 35.97 23.23 36.88 23.05 C 38.31 22.75 39.28 22.03 39.8 20.87 C 40.08 20.28 40.33 19.34 40.55 18.05 C 40.62 17.69 40.72 17.51 40.86 17.51 C 41.02 17.51 41.1 17.76 41.1 18.25 L 41.1 18.25 Z M 61.96 18.05 C 61.96 18.1 61.95 19.15 61.93 21.21 C 61.91 22.3 61.89 23.08 61.88 23.56 C 61.87 24.03 61.86 24.26 61.86 24.24 C 55.88 23.97 50.64 23.89 46.15 24 L 43.3 24.07 C 42.89 24.07 42.68 23.98 42.68 23.8 C 42.68 23.66 42.74 23.58 42.84 23.56 C 42.94 23.54 43.29 23.5 43.87 23.46 C 44.94 23.39 45.52 23.08 45.61 22.54 C 45.65 22.24 45.68 21.91 45.68 21.55 L 45.68 4.31 C 45.68 2.95 45.67 2.21 45.64 2.07 C 45.62 1.71 45.51 1.46 45.3 1.32 C 45.1 1.19 44.68 1.12 44.04 1.12 C 43.34 1.12 42.99 1.02 42.99 0.81 C 42.99 0.59 43.3 0.47 43.93 0.47 C 44.55 0.47 45.42 0.46 46.53 0.44 C 50.7 0.35 54.11 0.32 56.76 0.37 L 59.07 0.4 C 59.57 0.4 60.18 0.36 60.91 0.27 L 61.21 3.97 C 61.33 5.15 61.38 5.88 61.38 6.15 C 61.38 6.38 61.27 6.49 61.04 6.49 C 60.82 6.49 60.67 6.2 60.6 5.61 C 60.4 4.04 59.77 2.9 58.72 2.19 C 57.66 1.47 56.1 1.12 54.04 1.12 C 53.41 1.12 52.32 1.15 50.78 1.22 L 50.78 11.25 C 53.27 11.27 54.84 11.1 55.49 10.72 C 56.13 10.35 56.57 9.38 56.79 7.82 C 56.91 6.98 57.08 6.56 57.3 6.56 C 57.51 6.56 57.61 6.76 57.61 7.17 C 57.61 7.58 57.58 8.42 57.51 9.69 C 57.49 10.12 57.47 10.69 57.47 11.42 C 57.47 13.37 57.5 14.84 57.54 15.84 C 57.57 15.98 57.58 16.15 57.58 16.35 C 57.58 16.62 57.47 16.76 57.27 16.76 C 57.11 16.76 57.01 16.71 56.96 16.61 C 56.92 16.5 56.85 16.13 56.76 15.5 C 56.53 13.89 56.22 12.89 55.83 12.49 C 55.43 12.09 54.52 11.9 53.09 11.9 L 50.78 11.9 L 50.78 23.35 L 52.95 23.32 C 55.45 23.27 56.96 23.22 57.51 23.15 C 58.19 23.06 58.85 22.81 59.48 22.4 C 60.05 21.95 60.44 21.46 60.65 20.94 C 60.87 20.42 61.1 19.46 61.35 18.05 C 61.42 17.71 61.53 17.54 61.69 17.54 C 61.87 17.54 61.96 17.71 61.96 18.05 L 61.96 18.05 Z M 84.94 0.78 C 84.94 0.94 84.82 1.03 84.6 1.05 C 83.4 1.1 82.64 1.23 82.34 1.46 C 82.03 1.68 81.7 2.33 81.33 3.4 C 81.15 3.89 80.88 4.65 80.52 5.67 C 79.32 9.01 77.38 14.63 74.7 22.54 C 74.34 23.67 74.08 24.24 73.92 24.24 C 73.72 24.24 73.55 24.03 73.41 23.63 C 73.12 22.7 72.74 21.64 72.29 20.46 C 71.61 18.63 70.69 16.19 69.53 13.15 C 69.04 11.82 68.27 9.83 67.22 7.2 C 66.66 5.78 66.09 4.19 65.52 2.44 C 65.23 1.49 64.62 1.03 63.69 1.05 L 62.56 1.08 C 62.29 1.08 62.16 0.98 62.16 0.78 C 62.16 0.57 62.56 0.47 63.38 0.47 L 69.13 0.51 L 70.04 0.51 C 70.43 0.48 70.86 0.47 71.34 0.47 L 73.24 0.47 C 73.67 0.47 73.89 0.57 73.89 0.78 C 73.89 0.96 73.49 1.06 72.7 1.08 C 71.4 1.11 70.76 1.31 70.76 1.7 C 70.76 1.74 70.95 2.34 71.34 3.5 C 73.06 8.67 74.58 12.89 75.89 16.18 C 76.19 15.45 76.73 13.95 77.52 11.66 C 77.73 11.05 78.2 9.66 78.95 7.51 C 80.02 4.4 80.55 2.51 80.55 1.83 C 80.55 1.42 80.38 1.19 80.04 1.12 C 79.9 1.1 79.38 1.07 78.48 1.05 C 78.02 1.05 77.8 0.94 77.8 0.71 C 77.8 0.51 77.96 0.4 78.27 0.4 L 79.87 0.4 L 81.06 0.44 L 81.94 0.44 C 82.17 0.44 82.43 0.43 82.73 0.4 L 83.81 0.4 L 84.43 0.4 C 84.77 0.4 84.94 0.53 84.94 0.78 L 84.94 0.78 Z M 107.54 12.27 C 107.54 15.67 106.48 18.54 104.36 20.89 C 102.24 23.24 99.64 24.41 96.56 24.41 C 93.54 24.41 90.96 23.22 88.8 20.84 C 86.65 18.46 85.57 15.59 85.57 12.24 C 85.57 8.79 86.64 5.91 88.79 3.6 C 90.93 1.29 93.59 0.13 96.76 0.13 C 99.82 0.13 102.38 1.29 104.44 3.62 C 106.51 5.94 107.54 8.82 107.54 12.27 L 107.54 12.27 Z M 101.55 12.81 C 101.55 8.3 101.02 4.97 99.96 2.82 C 99.25 1.41 98.14 0.71 96.62 0.71 C 95.08 0.71 93.85 1.7 92.93 3.67 C 92.02 5.64 91.56 8.28 91.56 11.59 C 91.56 16.4 92.37 19.99 94.01 22.37 C 94.69 23.37 95.67 23.86 96.96 23.86 C 98.46 23.86 99.51 23.15 100.13 21.72 C 101.08 19.5 101.55 16.53 101.55 12.81 L 101.55 12.81 Z M 132.93 16.66 C 132.93 16.88 132.49 16.98 131.63 16.96 C 130.61 16.94 130.07 17.17 130 17.64 C 129.96 17.91 129.93 18.81 129.93 20.33 C 129.93 20.85 129.94 21.31 129.97 21.72 C 127.27 23.56 124.7 24.48 122.25 24.48 C 119.03 24.48 116.34 23.34 114.17 21.08 C 112.01 18.81 110.93 15.99 110.93 12.61 C 110.93 9.03 112.04 6.05 114.26 3.67 C 116.48 1.29 119.27 0.1 122.62 0.1 C 124.01 0.1 125.43 0.44 126.91 1.12 C 127.45 1.37 127.83 1.49 128.03 1.49 C 128.39 1.49 128.7 1.22 128.95 0.68 C 129.06 0.4 129.19 0.27 129.32 0.27 C 129.48 0.27 129.56 0.38 129.56 0.61 C 129.56 0.65 129.53 1.11 129.46 1.97 C 129.43 2.24 129.42 2.89 129.42 3.91 C 129.42 4.68 129.45 5.46 129.49 6.25 C 129.54 7.05 129.56 7.44 129.56 7.44 C 129.56 7.87 129.45 8.09 129.22 8.09 C 128.9 8.09 128.69 7.63 128.57 6.73 C 128.3 4.73 127.64 3.16 126.6 2 C 125.83 1.16 124.75 0.74 123.37 0.74 C 119.09 0.74 116.95 4.55 116.95 12.17 C 116.95 16.91 117.65 20.2 119.05 22.06 C 119.94 23.24 121.12 23.83 122.59 23.83 C 124.45 23.83 125.38 22.65 125.38 20.29 C 125.38 18.53 125.3 17.53 125.16 17.32 C 125.01 17.1 124.63 17 124.02 17 L 123.17 17 C 122.69 17 122.45 16.89 122.45 16.69 C 122.45 16.49 122.65 16.38 123.03 16.38 C 123.82 16.38 124.82 16.4 126.02 16.42 L 128.2 16.45 C 128.63 16.45 129.32 16.44 130.26 16.4 C 131.2 16.37 131.8 16.35 132.08 16.35 L 132.52 16.35 C 132.79 16.35 132.93 16.45 132.93 16.66 L 132.93 16.66 Z M 155.08 0.81 C 155.08 0.99 154.7 1.1 153.93 1.12 C 152.98 1.14 152.4 1.3 152.19 1.59 C 152.13 1.68 152.08 1.88 152.06 2.17 L 152.06 16.55 C 152.06 21.9 149.5 24.58 144.37 24.58 C 141.74 24.58 139.7 23.77 138.25 22.16 C 137.17 20.96 136.62 18.83 136.62 15.77 L 136.62 2.72 C 136.62 1.99 136.51 1.55 136.28 1.39 C 136.06 1.23 135.34 1.11 134.14 1.02 C 133.89 0.99 133.77 0.9 133.77 0.74 C 133.77 0.54 133.97 0.44 134.38 0.44 L 134.65 0.44 C 134.85 0.46 135.02 0.47 135.16 0.47 L 137.27 0.51 C 139.26 0.53 140.74 0.53 141.69 0.51 C 142.96 0.48 143.46 0.47 143.18 0.47 L 143.9 0.47 C 144.28 0.47 144.48 0.59 144.48 0.81 C 144.48 1.02 144.12 1.12 143.42 1.12 C 142.42 1.12 141.89 1.3 141.82 1.66 C 141.78 1.91 141.76 2.15 141.76 2.38 L 141.76 15.09 C 141.76 16.93 141.79 18.1 141.86 18.59 C 142.02 20.07 142.44 21.13 143.12 21.79 C 143.95 22.61 145.05 23.01 146.41 23.01 C 147.96 23.01 149.09 22.52 149.81 21.52 C 150.7 20.32 151.14 18.16 151.14 15.06 L 151.14 3.84 C 151.14 3.63 151.15 3.37 151.17 3.06 L 151.17 2.48 C 151.17 1.89 151 1.5 150.66 1.32 C 150.44 1.19 150 1.12 149.34 1.12 C 148.52 1.1 148.11 0.96 148.11 0.71 C 148.11 0.53 148.27 0.44 148.59 0.44 C 148.93 0.44 149.43 0.45 150.09 0.49 C 150.74 0.52 151.24 0.54 151.58 0.54 C 151.6 0.54 151.8 0.53 152.16 0.51 L 153.21 0.51 L 154.03 0.51 C 154.73 0.51 155.08 0.61 155.08 0.81 L 155.08 0.81 Z M 175.47 18.05 C 175.47 18.1 175.46 19.15 175.44 21.21 C 175.42 22.3 175.4 23.08 175.39 23.56 C 175.38 24.03 175.37 24.26 175.37 24.24 C 169.39 23.97 164.15 23.89 159.66 24 L 156.81 24.07 C 156.4 24.07 156.2 23.98 156.2 23.8 C 156.2 23.66 156.25 23.58 156.35 23.56 C 156.45 23.54 156.8 23.5 157.39 23.46 C 158.45 23.39 159.03 23.08 159.12 22.54 C 159.17 22.24 159.19 21.91 159.19 21.55 L 159.19 4.31 C 159.19 2.95 159.18 2.21 159.15 2.07 C 159.13 1.71 159.02 1.46 158.81 1.32 C 158.61 1.19 158.19 1.12 157.56 1.12 C 156.85 1.12 156.5 1.02 156.5 0.81 C 156.5 0.59 156.81 0.47 157.44 0.47 C 158.06 0.47 158.93 0.46 160.04 0.44 C 164.21 0.35 167.62 0.32 170.27 0.37 L 172.58 0.4 C 173.08 0.4 173.69 0.36 174.42 0.27 L 174.73 3.97 C 174.84 5.15 174.9 5.88 174.9 6.15 C 174.9 6.38 174.78 6.49 174.56 6.49 C 174.33 6.49 174.18 6.2 174.11 5.61 C 173.91 4.04 173.28 2.9 172.23 2.19 C 171.17 1.47 169.61 1.12 167.55 1.12 C 166.92 1.12 165.83 1.15 164.29 1.22 L 164.29 11.25 C 166.78 11.27 168.35 11.1 169 10.72 C 169.64 10.35 170.08 9.38 170.31 7.82 C 170.42 6.98 170.59 6.56 170.82 6.56 C 171.02 6.56 171.12 6.76 171.12 7.17 C 171.12 7.58 171.09 8.42 171.02 9.69 C 171 10.12 170.99 10.69 170.99 11.42 C 170.99 13.37 171.01 14.84 171.05 15.84 C 171.08 15.98 171.09 16.15 171.09 16.35 C 171.09 16.62 170.99 16.76 170.78 16.76 C 170.62 16.76 170.52 16.71 170.48 16.61 C 170.43 16.5 170.36 16.13 170.27 15.5 C 170.05 13.89 169.73 12.89 169.34 12.49 C 168.94 12.09 168.03 11.9 166.6 11.9 L 164.29 11.9 L 164.29 23.35 L 166.46 23.32 C 168.96 23.27 170.48 23.22 171.02 23.15 C 171.7 23.06 172.36 22.81 172.99 22.4 C 173.56 21.95 173.95 21.46 174.16 20.94 C 174.38 20.42 174.61 19.46 174.86 18.05 C 174.93 17.71 175.04 17.54 175.2 17.54 C 175.38 17.54 175.47 17.71 175.47 18.05 L 175.47 18.05 Z M 175.47 18.05" />
</svg>