<?xml version="1.0" encoding="UTF-8" standalone="no"?>
<svg width="100px" height="100px" viewBox="0 0 100 100" version="1.1" xmlns="http://www.w3.org/2000/svg" xmlns:xlink="http://www.w3.org/1999/xlink">
    <!-- Generator: Sketch 3.7 (28169) - http://www.bohemiancoding.com/sketch -->
    <title>Combined Shape</title>
    <desc>Created with Sketch.</desc>
    <defs></defs>
    <g id="Page-1" stroke="none" stroke-width="1" fill="none" fill-rule="evenodd">
        <g id="objects-1440" transform="translate(-460.000000, -982.000000)" fill="#FFFFFF">
            <g id="blocks" transform="translate(210.000000, 831.997452)">
                <g id="Group-3-Copy-5">
                    <path d="M289.234255,220.554306 L319.062304,201.253803 L321,200 L319.062304,198.746197 L289.234255,179.445694 L287,178 L287,180.699497 L287,219.300503 L287,222 L289.234255,220.554306 L289.234255,220.554306 L289.234255,220.554306 Z M300,250 C272.385763,250 250,227.614237 250,200 C250,172.385763 272.385763,150 300,150 C327.614237,150 350,172.385763 350,200 C350,227.614237 327.614237,250 300,250 Z M300,246 C325.405098,246 346,225.405098 346,200 C346,174.594902 325.405098,154 300,154 C274.594902,154 254,174.594902 254,200 C254,225.405098 274.594902,246 300,246 Z M291.40726,223.912586 L291.40726,223.912586 L289.173005,225.358281 L283,229.352578 L283,222 L283,219.300503 L283,180.699497 L283,178 L283,170.647422 L289.173005,174.641719 L291.40726,176.087414 L321.235309,195.387916 L323.173005,196.641719 L328.363075,200 L323.173005,203.358281 L321.235309,204.612084 L291.40726,223.912586 Z" id="Combined-Shape"></path>
                </g>
            </g>
        </g>
    </g>
</svg>