<?xml version="1.0" encoding="utf-8"?>
<!-- Generator: Avocode 2.6.0 - http://avocode.com -->
<svg height="39" width="51" xmlns:xlink="http://www.w3.org/1999/xlink" xmlns="http://www.w3.org/2000/svg" viewBox="0 0 51 39">
    <path fill="#c86af2" fill-rule="evenodd" d="M 50.84 10.36 C 50.84 3.43 47.58 0.18 41.61 0.18 C 34.01 0.18 27.7 6.62 27.7 14.22 C 27.7 18.98 30.61 21.69 35.77 21.69 C 39.03 21.69 42.02 20.13 44.53 17.69 C 43.98 25.56 37.47 32.35 29.46 36.42 L 30.14 38.66 C 42.97 32.96 50.84 22.03 50.84 10.36 Z M 23.49 10.36 C 23.49 3.43 20.3 0.18 14.32 0.18 C 6.66 0.18 0.41 6.62 0.41 14.22 C 0.41 18.98 3.26 21.69 8.49 21.69 C 11.75 21.69 14.73 20.13 17.18 17.69 C 16.63 25.56 10.12 32.35 2.11 36.42 L 2.79 38.66 C 15.61 32.96 23.49 22.03 23.49 10.36 Z M 23.49 10.36" />
</svg>