<?xml version="1.0" encoding="utf-8"?>
<!-- Generator: Avocode 2.6.0 - http://avocode.com -->
<svg height="169" width="172" xmlns:xlink="http://www.w3.org/1999/xlink" xmlns="http://www.w3.org/2000/svg" viewBox="0 0 172 169">
    <defs>
        <linearGradient y2="100%" y1="0%" x2="0%" x1="0%" id="gradient-1">
            <stop stop-color="#001dff" offset="0%" />
            <stop stop-color="#00c7ff" offset="100%" />
        </linearGradient>
        <linearGradient y2="100%" y1="0%" x2="0%" x1="0%" id="gradient-2">
            <stop stop-color="#ffeb00" offset="0%" />
            <stop stop-color="#ff9f00" offset="100%" />
        </linearGradient>
        <linearGradient y2="100%" y1="0%" x2="0%" x1="0%" id="gradient-3">
            <stop stop-color="#ffeb00" offset="0%" />
            <stop stop-color="#ff9f00" offset="100%" />
        </linearGradient>
    </defs>
    <path fill="url(#gradient-1)" fill-rule="evenodd" d="M 145.61 29.89 C 145.61 37.22 142.08 40.89 135.02 40.89 C 128.51 40.89 125.26 37.92 125.26 31.96 C 125.26 30.99 125.5 29.89 125.98 28.64 C 126.47 27.39 126.71 26.49 126.71 25.94 C 126.71 23.59 125.46 22.41 122.97 22.41 C 121.31 22.41 119.75 23.14 118.3 24.59 C 116.85 26.04 116.12 27.67 116.12 29.47 C 116.12 30.3 116.67 31.82 117.78 34.04 C 120.41 39.16 121.73 43.94 121.73 48.37 C 121.73 58.75 116.95 67.41 107.4 74.33 C 100.06 79.59 91.06 82.22 80.4 82.22 C 75.97 82.22 70.85 81.39 65.03 79.73 C 63.51 79.31 62.19 79.1 61.09 79.1 C 58.46 79.1 56.21 79.9 54.34 81.49 C 52.47 83.08 51.53 85.06 51.53 87.41 C 51.53 92.4 55.48 94.89 63.37 94.89 C 69.32 94.89 78.18 94.06 89.95 92.4 C 92.86 91.98 95.63 91.77 98.26 91.77 C 107.54 91.77 114.73 94.09 119.86 98.73 C 124.98 103.37 127.54 109.91 127.54 118.35 C 127.54 131.92 122.31 142.72 111.86 150.75 C 101.41 158.78 87.32 162.8 69.6 162.8 C 57.14 162.8 47.28 160.62 40.01 156.25 C 32.74 151.89 29.11 145.91 29.11 138.29 C 29.11 126.8 37.55 119.88 54.44 117.52 C 44.2 113.51 39.07 107.42 39.07 99.25 C 39.07 88.17 45.65 80.63 58.8 76.61 C 46.07 70.11 39.7 60.97 39.7 49.2 C 39.7 39.92 43.75 32.1 51.85 25.73 C 59.94 19.36 69.81 16.18 81.44 16.18 C 94.87 16.18 105.32 19.85 112.8 27.19 C 118.06 20.4 124.29 17.01 131.49 17.01 C 140.9 17.01 145.61 21.3 145.61 29.89 L 145.61 29.89 Z M 96.6 50.45 C 96.6 29.4 91.55 18.88 81.44 18.88 C 71.33 18.88 66.28 28.43 66.28 47.54 C 66.28 59.03 67.52 67.27 70.02 72.25 C 72.51 77.24 76.66 79.73 82.48 79.73 C 87.88 79.73 91.58 77.62 93.59 73.39 C 95.59 69.17 96.6 61.52 96.6 50.45 L 96.6 50.45 Z M 116.74 130.4 C 116.74 120.15 110.72 115.03 98.68 115.03 C 92.86 115.03 85.25 115.79 75.83 117.32 C 69.05 118.42 63.99 118.98 60.67 118.98 L 57.56 118.98 C 53.68 123.68 51.74 129.5 51.74 136.42 C 51.74 151.1 61.29 158.43 80.4 158.43 C 90.65 158.43 99.26 155.73 106.26 150.34 C 113.25 144.94 116.74 138.29 116.74 130.4 L 116.74 130.4 Z M 116.74 130.4" />
    <path fill="url(#gradient-2)" fill-rule="evenodd" d="M 170.64 31.35 C 170.64 40.46 167.07 47.82 159.92 53.44 C 154.3 57.87 148.13 60.08 141.41 60.08 C 133.41 60.08 126.49 57.21 120.66 51.46 C 114.83 45.72 111.92 38.93 111.92 31.1 C 111.92 22.93 114.83 15.97 120.66 10.23 C 126.49 4.48 133.54 1.61 141.79 1.61 C 149.71 1.61 156.49 4.52 162.15 10.35 C 167.81 16.18 170.64 23.18 170.64 31.35 L 170.64 31.35 Z M 151.37 31.48 C 151.37 20.93 150.64 13.69 149.2 9.78 C 147.58 5.44 144.98 3.27 141.41 3.27 C 138.09 3.27 135.49 5.54 133.62 10.1 C 131.75 14.65 130.81 20.93 130.81 28.93 C 130.81 40.08 131.92 47.99 134.13 52.68 C 135.92 56.42 138.43 58.29 141.66 58.29 C 145.66 58.29 148.3 55.91 149.58 51.14 C 150.77 46.63 151.37 40.08 151.37 31.48 L 151.37 31.48 Z M 151.37 31.48" />
    <path fill="url(#gradient-3)" fill-rule="evenodd" d="M 61.8 168.75 C 72.28 170.29 78.58 160.81 75.17 153.87 C 71.77 146.93 65.93 142.75 58.13 146.08 C 50.33 149.41 51.32 167.22 61.8 168.75 Z M 61.8 168.75" />
</svg>