<?xml version="1.0" encoding="utf-8"?>
<!-- Generator: Avocode 2.6.0 - http://avocode.com -->
<svg height="8613" width="1280" xmlns:xlink="http://www.w3.org/1999/xlink" xmlns="http://www.w3.org/2000/svg" viewBox="0 0 1280 8613">
    <path fill="#d8d8d8" opacity="0.6" fill-rule="evenodd" d="M 1250 0 L 1290 0 L 1290 8758 L 1250 8758 L 1250 0 Z M 1320 0 L 1360 0 L 1360 8758 L 1320 8758 L 1320 0 Z M 1180 0 L 1220 0 L 1220 8758 L 1180 8758 L 1180 0 Z M 1110 0 L 1150 0 L 1150 8758 L 1110 8758 L 1110 0 Z M 1040 0 L 1080 0 L 1080 8758 L 1040 8758 L 1040 0 Z M 970 0 L 1010 0 L 1010 8758 L 970 8758 L 970 0 Z M 900 0 L 940 0 L 940 8758 L 900 8758 L 900 0 Z M 830 0 L 870 0 L 870 8758 L 830 8758 L 830 0 Z M 760 0 L 800 0 L 800 8758 L 760 8758 L 760 0 Z M 690 0 L 730 0 L 730 8758 L 690 8758 L 690 0 Z M 620 0 L 660 0 L 660 8758 L 620 8758 L 620 0 Z M 550 0 L 590 0 L 590 8758 L 550 8758 L 550 0 Z M 480 0 L 520 0 L 520 8758 L 480 8758 L 480 0 Z M 410 0 L 450 0 L 450 8758 L 410 8758 L 410 0 Z M 340 0 L 380 0 L 380 8758 L 340 8758 L 340 0 Z M 270 0 L 310 0 L 310 8758 L 270 8758 L 270 0 Z M 200 0 L 240 0 L 240 8758 L 200 8758 L 200 0 Z M 130 0 L 170 0 L 170 8758 L 130 8758 L 130 0 Z M 60 0 L 100 0 L 100 8758 L 60 8758 L 60 0 Z M -10 0 L 30 0 L 30 8758 L -10 8758 L -10 0 Z M -80 0 L -40 0 L -40 8758 L -80 8758 L -80 0 Z M -80 0" />
</svg>