<?xml version="1.0" encoding="utf-8"?>
<!-- Generator: Avocode 2.6.0 - http://avocode.com -->
<svg height="8469" width="1440" xmlns:xlink="http://www.w3.org/1999/xlink" xmlns="http://www.w3.org/2000/svg" viewBox="0 0 1440 8469">
    <path fill="#d8d8d8" opacity="0.6" fill-rule="evenodd" d="M 1330 0 L 1370 0 L 1370 9690 L 1330 9690 L 1330 0 Z M 1400 0 L 1440 0 L 1440 9690 L 1400 9690 L 1400 0 Z M 1260 0 L 1300 0 L 1300 9690 L 1260 9690 L 1260 0 Z M 1190 0 L 1230 0 L 1230 9690 L 1190 9690 L 1190 0 Z M 1120 0 L 1160 0 L 1160 9690 L 1120 9690 L 1120 0 Z M 1050 0 L 1090 0 L 1090 9690 L 1050 9690 L 1050 0 Z M 980 0 L 1020 0 L 1020 9690 L 980 9690 L 980 0 Z M 910 0 L 950 0 L 950 9690 L 910 9690 L 910 0 Z M 840 0 L 880 0 L 880 9690 L 840 9690 L 840 0 Z M 770 0 L 810 0 L 810 9690 L 770 9690 L 770 0 Z M 700 0 L 740 0 L 740 9690 L 700 9690 L 700 0 Z M 630 0 L 670 0 L 670 9690 L 630 9690 L 630 0 Z M 560 0 L 600 0 L 600 9690 L 560 9690 L 560 0 Z M 490 0 L 530 0 L 530 9690 L 490 9690 L 490 0 Z M 420 0 L 460 0 L 460 9690 L 420 9690 L 420 0 Z M 350 0 L 390 0 L 390 9690 L 350 9690 L 350 0 Z M 280 0 L 320 0 L 320 9690 L 280 9690 L 280 0 Z M 210 0 L 250 0 L 250 9690 L 210 9690 L 210 0 Z M 140 0 L 180 0 L 180 9690 L 140 9690 L 140 0 Z M 70 0 L 110 0 L 110 9690 L 70 9690 L 70 0 Z M 0 0 L 40 0 L 40 9690 L 0 9690 L 0 0 Z M 0 0" />
</svg>