<?xml version="1.0" encoding="UTF-8" standalone="no"?>
<svg width="159px" height="190px" viewBox="0 0 159 190" version="1.1" xmlns="http://www.w3.org/2000/svg" xmlns:xlink="http://www.w3.org/1999/xlink">
    <!-- Generator: Sketch 3.7 (28169) - http://www.bohemiancoding.com/sketch -->
    <title>Path 16</title>
    <desc>Created with Sketch.</desc>
    <defs>
        <linearGradient x1="50%" y1="0%" x2="50%" y2="100%" id="linearGradient-1">
            <stop stop-color="#FF89D0" offset="0%"></stop>
            <stop stop-color="#5163FF" offset="100%"></stop>
        </linearGradient>
    </defs>
    <g id="Page-1" stroke="none" stroke-width="1" fill="none" fill-rule="evenodd">
        <g id="objects-1440" transform="translate(-1196.000000, -6030.000000)" fill="url(#linearGradient-1)">
            <g id="objects" transform="translate(87.000000, 842.000000)">
                <path d="M1134.80306,5212.15419 C1144.9165,5201.52349 1178.50506,5195.54489 1209.31532,5199.08358 C1225.10226,5200.89678 1238.40215,5205.0151 1247.00641,5210.96267 C1255.91481,5217.12048 1259.36651,5224.77752 1257.04461,5234.48213 C1254.20223,5246.36213 1252.699,5259.24144 1250.12236,5288.85244 C1250.08833,5289.24357 1249.93222,5291.03844 1249.88957,5291.52857 C1249.79943,5292.56437 1249.72652,5293.40067 1249.65615,5294.20561 C1246.50691,5330.22777 1244.08934,5347.216 1239.4181,5358.75357 C1236.98511,5364.76281 1234.47921,5367.3908 1232.13474,5367.47886 C1228.91032,5367.59998 1223.74208,5364.03202 1217.00327,5355.77938 C1208.81392,5345.75034 1203.2846,5335.33982 1199.49611,5323.79361 C1196.74954,5315.42283 1195.84916,5311.04427 1192.96356,5294.35182 C1189.79386,5276.01592 1186.9762,5267.69019 1179.44183,5260.13203 C1170.17515,5250.83609 1155.12757,5246.51432 1131.1805,5246.51432 C1122.73692,5246.51432 1119.14098,5243.92657 1119.02745,5239.29673 C1118.87386,5233.0334 1124.21224,5223.2867 1134.80306,5212.15419 L1134.80306,5212.15419 Z M1127.55793,5205.26159 C1115.31377,5218.13199 1108.7972,5230.0298 1109.03045,5239.54187 C1109.29578,5250.36202 1117.84502,5256.51432 1131.1805,5256.51432 C1152.72502,5256.51432 1165.32223,5260.13232 1172.35963,5267.19194 C1177.94434,5272.7943 1180.28342,5279.70589 1183.10971,5296.05524 C1186.08526,5313.26804 1187.03767,5317.89962 1189.99451,5326.91123 C1194.1538,5339.58753 1200.26188,5351.08774 1209.25756,5362.10425 C1217.79723,5372.56231 1225.30097,5377.7426 1232.51009,5377.47182 C1239.75756,5377.19959 1244.93788,5371.76689 1248.68721,5362.50638 C1253.89761,5349.63714 1256.36238,5332.31718 1259.61815,5295.07654 C1259.68865,5294.2701 1259.76167,5293.43257 1259.85191,5292.39557 C1259.8946,5291.90509 1260.05071,5290.11016 1260.08472,5289.71933 C1262.61193,5260.67638 1264.09039,5248.00919 1266.77012,5236.80903 C1270.11038,5222.84809 1264.8248,5211.12288 1252.69255,5202.73663 C1242.53677,5195.71659 1227.73608,5191.13354 1210.45636,5189.14889 C1176.82663,5185.28637 1140.39147,5191.77165 1127.55793,5205.26159 L1127.55793,5205.26159 Z" id="Path-16"></path>
            </g>
        </g>
    </g>
</svg>