<?xml version="1.0" encoding="UTF-8" standalone="no"?>
<svg width="169px" height="57px" viewBox="0 0 169 57" version="1.1" xmlns="http://www.w3.org/2000/svg" xmlns:xlink="http://www.w3.org/1999/xlink">
    <!-- Generator: Sketch 3.7 (28169) - http://www.bohemiancoding.com/sketch -->
    <title>Path 14</title>
    <desc>Created with Sketch.</desc>
    <defs>
        <linearGradient x1="50%" y1="0%" x2="50%" y2="100%" id="linearGradient-1">
            <stop stop-color="#FFFC6E" offset="0%"></stop>
            <stop stop-color="#FF3BF4" offset="100%"></stop>
        </linearGradient>
    </defs>
    <g id="Page-1" stroke="none" stroke-width="1" fill="none" fill-rule="evenodd">
        <g id="objects-1440" transform="translate(-87.000000, -5063.000000)" fill="url(#linearGradient-1)">
            <g id="objects" transform="translate(87.000000, 842.000000)">
                <path d="M83.7834353,4222.7311 C30.3184536,4226.95793 0.191659265,4235.7577 0.177499714,4249.63053 C0.16334831,4263.49538 30.2753457,4272.42677 83.7616121,4276.89104 C109.088888,4279.005 130.049289,4277.26782 145.016482,4272.28709 C159.524731,4267.45909 168.184064,4259.51853 168.177491,4249.98483 C168.170927,4240.46353 159.515748,4232.49706 145.014807,4227.6076 C130.047457,4222.56087 109.093581,4220.73014 83.7834353,4222.7311 L83.7834353,4222.7311 Z M84.5715551,4232.7 C108.630395,4230.79796 128.266635,4232.51357 141.819722,4237.08343 C152.719807,4240.75875 158.17459,4245.77948 158.177494,4249.99173 C158.18039,4254.19246 152.746068,4259.1757 141.85896,4262.79867 C128.310423,4267.30731 108.668945,4268.93517 84.5933765,4266.92569 C59.4871913,4264.83019 39.6648804,4261.62252 26.3390737,4257.67001 C20.2589,4255.86659 15.7115118,4253.95468 12.8546868,4252.07715 C11.6701422,4251.29866 10.8624607,4250.58096 10.4222593,4249.98837 C10.21086,4249.70379 10.1775224,4249.61343 10.1774945,4249.64074 C10.1774655,4249.66919 10.2101256,4249.5813 10.4204439,4249.29985 C10.8604473,4248.71105 11.6679291,4247.99831 12.8522494,4247.22612 C15.7106502,4245.36241 20.2593073,4243.47129 26.3396035,4241.69529 C39.6661828,4237.80271 59.482333,4234.6835 84.5715551,4232.7 L84.5715551,4232.7 Z" id="Path-14"></path>
            </g>
        </g>
    </g>
</svg>