<?xml version="1.0" encoding="UTF-8" standalone="no"?>
<svg width="111px" height="112px" viewBox="0 0 111 112" version="1.1" xmlns="http://www.w3.org/2000/svg" xmlns:xlink="http://www.w3.org/1999/xlink">
    <!-- Generator: Sketch 3.7 (28169) - http://www.bohemiancoding.com/sketch -->
    <title>Path 09</title>
    <desc>Created with Sketch.</desc>
    <defs>
        <linearGradient x1="50%" y1="0%" x2="50%" y2="100%" id="linearGradient-1">
            <stop stop-color="#A3FFFF" offset="0%"></stop>
            <stop stop-color="#DFFEFF" offset="100%"></stop>
        </linearGradient>
    </defs>
    <g id="Page-1" stroke="none" stroke-width="1" fill="none" fill-rule="evenodd">
        <g id="objects-1440" transform="translate(-232.000000, -3271.000000)" fill="url(#linearGradient-1)">
            <g id="objects" transform="translate(87.000000, 842.000000)">
                <path d="M159.868594,2430.77181 C149.766848,2434.52294 144.917853,2442.4322 145.889729,2452.67123 C146.705478,2461.26542 151.583505,2471.32506 159.726046,2481.96535 C175.850695,2503.03628 202.984888,2524.17299 230.690511,2536.50554 C238.670193,2540.05752 244.717649,2541.06272 249.218825,2539.0215 C254.378978,2536.68144 255.972027,2531.42366 254.897209,2524.87538 C253.33646,2515.36659 245.820801,2501.04413 234.697552,2485.55364 C223.644695,2470.16118 210.224312,2455.32065 197.760279,2445.01548 C182.819261,2432.66236 169.85842,2427.06225 159.868594,2430.77181 L159.868594,2430.77181 Z M163.349683,2440.14635 C175.0087,2435.81696 203.714655,2459.55083 226.57478,2491.38636 C236.866475,2505.71881 243.782321,2518.89821 245.029253,2526.49508 C245.283751,2528.0456 245.26471,2529.17813 245.07098,2529.81753 C245.01759,2529.99374 245.081146,2529.91767 245.088792,2529.9142 C244.710941,2530.08555 243.813065,2530.14828 242.366162,2529.90778 C240.399442,2529.58087 237.848535,2528.74582 234.757108,2527.36974 C208.558788,2515.70814 182.762704,2495.61377 167.667517,2475.88809 C160.560975,2466.6016 156.452768,2458.12951 155.844983,2451.72629 C155.297157,2445.95476 157.534239,2442.30583 163.349683,2440.14635 L163.349683,2440.14635 Z" id="Path-09"></path>
            </g>
        </g>
    </g>
</svg>