<?xml version="1.0" encoding="UTF-8" standalone="no"?>
<svg width="181px" height="54px" viewBox="0 0 181 54" version="1.1" xmlns="http://www.w3.org/2000/svg" xmlns:xlink="http://www.w3.org/1999/xlink">
    <!-- Generator: Sketch 3.7 (28169) - http://www.bohemiancoding.com/sketch -->
    <title>Path 17</title>
    <desc>Created with Sketch.</desc>
    <defs>
        <linearGradient x1="50%" y1="0%" x2="50%" y2="100%" id="linearGradient-1">
            <stop stop-color="#72FFDC" offset="0%"></stop>
            <stop stop-color="#C773FF" offset="100%"></stop>
        </linearGradient>
    </defs>
    <g id="Page-1" stroke="none" stroke-width="1" fill="none" fill-rule="evenodd">
        <g id="objects-1440" transform="translate(-258.000000, -6628.000000)" fill="url(#linearGradient-1)">
            <g id="objects" transform="translate(87.000000, 842.000000)">
                <path d="M261.774324,5797.80754 C291.902054,5794.58281 329.765347,5800.36641 340.136874,5808.68879 C340.943222,5809.33582 341.373863,5809.85687 341.492632,5810.14836 C341.465451,5810.08165 341.4696,5809.85703 341.494616,5809.80246 C341.333166,5810.15466 340.78105,5810.75506 339.734636,5811.49734 C338.326135,5812.49647 336.294207,5813.54523 333.648415,5814.5981 C321.103753,5819.59018 297.068663,5823.89103 261.57989,5826.99559 C226.02506,5830.10592 201.923326,5830.14577 189.288164,5827.57806 C186.648638,5827.04166 184.627479,5826.40936 183.245924,5825.73206 C182.702494,5825.46565 182.298132,5825.21154 182.028903,5824.98795 C181.891533,5824.87386 181.843786,5824.81871 181.851804,5824.83286 C181.996693,5825.08847 182.01823,5825.44786 181.987222,5825.5346 C182.129528,5825.13654 182.617828,5824.45045 183.491147,5823.59469 C193.528114,5813.75954 230.964436,5801.10529 261.774324,5797.80754 L261.774324,5797.80754 Z M260.710051,5787.86434 C227.866995,5791.3797 188.498928,5804.68693 176.492253,5816.45218 C172.27433,5820.58529 170.601592,5825.26427 173.152179,5829.76404 C175.320476,5833.58936 180.039931,5835.90304 187.296675,5837.37775 C201.121125,5840.18715 226.003369,5840.14601 262.45136,5836.95754 C298.83754,5833.77448 323.673289,5829.33036 337.345847,5823.88944 C344.320223,5821.11403 348.750591,5817.97131 350.58502,5813.96954 C352.787623,5809.1646 350.883163,5804.49047 346.395352,5800.88934 C333.49455,5790.5374 293.216686,5784.38498 260.710051,5787.86434 L260.710051,5787.86434 Z" id="Path-17"></path>
            </g>
        </g>
    </g>
</svg>