<?xml version="1.0" encoding="UTF-8" standalone="no"?>
<svg
   xmlns:dc="http://purl.org/dc/elements/1.1/"
   xmlns:cc="http://creativecommons.org/ns#"
   xmlns:rdf="http://www.w3.org/1999/02/22-rdf-syntax-ns#"
   xmlns:svg="http://www.w3.org/2000/svg"
   xmlns="http://www.w3.org/2000/svg"
   viewBox="0 0 146.66667 148"
   height="148"
   width="146.66667"
   xml:space="preserve"
   id="svg2"
   version="1.1"><metadata
     id="metadata8"><rdf:RDF><cc:Work
         rdf:about=""><dc:format>image/svg+xml</dc:format><dc:type
           rdf:resource="http://purl.org/dc/dcmitype/StillImage" /></cc:Work></rdf:RDF></metadata><defs
     id="defs6"><clipPath
       id="clipPath20"
       clipPathUnits="userSpaceOnUse"><path
         id="path18"
         d="M 110,111 C 87.54124,111 65.63162,99.28673 55.03699,83.30484 43.37929,65.71934 49.44281,48.44627 72.39745,43.73473 85.51641,41.04201 92.96526,47.56415 90.27468,58.71257 88.34658,66.70166 81.23783,76.57245 72.04638,84.22874 61.61972,92.91396 49.80353,97.84016 38.71392,96.99533 25.2379,95.9687 14.20404,86.68298 6.933243,69.15896 -6.916697,35.77793 0.7123173,12.47279 24.17852,3.708557 43.19787,-3.394852 69.94132,1.097665 85.65054,13.49371 l -6.19461,7.85028 C 66.45814,11.08751 43.38203,7.211055 27.6773,13.07651 9.952639,19.69638 4.344988,36.82665 16.16978,65.32668 22.09002,79.59561 30.06551,86.3075 39.47354,87.02422 47.60856,87.64397 57.04475,83.70999 65.64614,76.5452 73.32125,70.15198 79.1952,61.99576 80.55378,56.36651 80.81273,55.29353 80.86632,54.44952 80.76779,53.88989 80.72217,53.63079 80.68778,53.56616 80.64932,53.53248 80.60407,53.49286 80.51827,53.44108 80.36811,53.3807 80.11487,53.27887 79.769,53.19373 79.32462,53.13981 78.12641,52.99443 76.47708,53.10585 74.40807,53.53052 58.68182,56.7584 55.48108,65.87631 63.37189,77.77951 72.1104,90.96144 90.88747,101 110,101 v 10 z" /></clipPath><clipPath
       id="clipPath26"
       clipPathUnits="userSpaceOnUse"><path
         id="path24"
         d="M 0.03305079,0.3303002 H 109.99995 V 111 H 0.03305079 Z" /></clipPath><linearGradient
       id="linearGradient34"
       spreadMethod="pad"
       gradientTransform="matrix(1,0,0,-1,0.03305079,111)"
       gradientUnits="userSpaceOnUse"
       y2="1024"
       x2="512"
       y1="0"
       x1="512"><stop
         id="stop30"
         offset="0"
         style="stop-opacity:1;stop-color:#ff36da" /><stop
         id="stop32"
         offset="1"
         style="stop-opacity:1;stop-color:#2b00c6" /></linearGradient><clipPath
       id="clipPath44"
       clipPathUnits="userSpaceOnUse"><path
         id="path42"
         d="M 110,111 C 87.54124,111 65.63162,99.28673 55.03699,83.30484 43.37929,65.71934 49.44281,48.44627 72.39745,43.73473 85.51641,41.04201 92.96526,47.56415 90.27468,58.71257 88.34658,66.70166 81.23783,76.57245 72.04638,84.22874 61.61972,92.91396 49.80353,97.84016 38.71392,96.99533 25.2379,95.9687 14.20404,86.68298 6.933243,69.15896 -6.916697,35.77793 0.7123173,12.47279 24.17852,3.708557 43.19787,-3.394852 69.94132,1.097665 85.65054,13.49371 l -6.19461,7.85028 C 66.45814,11.08751 43.38203,7.211055 27.6773,13.07651 9.952639,19.69638 4.344988,36.82665 16.16978,65.32668 22.09002,79.59561 30.06551,86.3075 39.47354,87.02422 47.60856,87.64397 57.04475,83.70999 65.64614,76.5452 73.32125,70.15198 79.1952,61.99576 80.55378,56.36651 80.81273,55.29353 80.86632,54.44952 80.76779,53.88989 80.72217,53.63079 80.68778,53.56616 80.64932,53.53248 80.60407,53.49286 80.51827,53.44108 80.36811,53.3807 80.11487,53.27887 79.769,53.19373 79.32462,53.13981 78.12641,52.99443 76.47708,53.10585 74.40807,53.53052 58.68182,56.7584 55.48108,65.87631 63.37189,77.77951 72.1104,90.96144 90.88747,101 110,101 v 10 z" /></clipPath><clipPath
       id="clipPath50"
       clipPathUnits="userSpaceOnUse"><path
         id="path48"
         d="M -1179,-4111 H 261 v 8524 h -1440 z" /></clipPath><linearGradient
       id="linearGradient58"
       spreadMethod="pad"
       gradientTransform="matrix(1,0,0,-1,0.03305079,111)"
       gradientUnits="userSpaceOnUse"
       y2="110.6697"
       x2="54.983471"
       y1="0"
       x1="54.983471"><stop
         id="stop54"
         offset="0"
         style="stop-opacity:1;stop-color:#ff36da" /><stop
         id="stop56"
         offset="1"
         style="stop-opacity:1;stop-color:#2b00c6" /></linearGradient></defs><g
     transform="matrix(1.3333333,0,0,-1.3333333,0,148)"
     id="g10"><g
       id="g12" /><g
       id="g14"><g
         clip-path="url(#clipPath20)"
         id="g16"><g
           clip-path="url(#clipPath26)"
           id="g22"><g
             id="g28"><path
               id="path36"
               style="fill:url(#linearGradient34);stroke:none"
               d="M 0.03305079,0.3303002 H 109.99995 V 111 H 0.03305079 Z" /></g></g></g></g><g
       id="g38"><g
         clip-path="url(#clipPath44)"
         id="g40"><g
           clip-path="url(#clipPath50)"
           id="g46"><g
             id="g52"><path
               id="path60"
               style="fill:url(#linearGradient58);stroke:none"
               d="M -1179,-4111 H 261 v 8524 h -1440 z" /></g></g></g></g></g></svg>