<?xml version="1.0" encoding="UTF-8" standalone="no"?>
<svg width="69px" height="165px" viewBox="0 0 69 165" version="1.1" xmlns="http://www.w3.org/2000/svg" xmlns:xlink="http://www.w3.org/1999/xlink">
    <!-- Generator: Sketch 3.7 (28169) - http://www.bohemiancoding.com/sketch -->
    <title>Path 13</title>
    <desc>Created with Sketch.</desc>
    <defs>
        <linearGradient x1="50%" y1="0%" x2="50%" y2="100%" id="linearGradient-1">
            <stop stop-color="#FF6F6F" offset="0%"></stop>
            <stop stop-color="#C0F4FF" offset="100%"></stop>
        </linearGradient>
    </defs>
    <g id="Page-1" stroke="none" stroke-width="1" fill="none" fill-rule="evenodd">
        <g id="objects-1440" transform="translate(-114.000000, -4828.000000)" fill="url(#linearGradient-1)">
            <g id="objects" transform="translate(87.000000, 842.000000)">
                <path d="M95.2931441,4150.28483 C95.2931436,4143.57155 92.3664619,4137.68758 86.9568143,4132.22206 C82.9473814,4128.17122 78.08837,4124.67671 70.0053324,4119.63861 C68.7157515,4118.83482 64.2334823,4116.07258 64.0841099,4115.98014 C54.6066619,4110.11516 49.4439081,4106.42746 45.2045567,4102.08147 C40.1238535,4096.87296 37.6128352,4091.61278 37.6128352,4085.57449 C37.6128351,4079.4578 39.4298101,4075.13628 43.0193418,4071.60387 C45.9976321,4068.67298 49.6433405,4066.55061 56.7943842,4063.23476 C57.0894551,4063.09794 57.3897291,4062.95911 57.8000343,4062.76969 C58.3055175,4062.53641 58.5716128,4062.41359 58.8132003,4062.30195 C66.5866722,4058.70971 70.3341081,4056.61943 73.9817862,4053.29579 C79.0696458,4048.6599 81.7692883,4042.81214 81.7692885,4035.3974 C81.7692887,4028.00746 79.4416061,4022.18736 74.9798596,4017.53098 C71.7461468,4014.1562 68.5210922,4012.11049 61.6141445,4008.47411 C61.0552574,4008.18002 60.7581261,4008.02366 60.5015013,4007.88834 C54.4020079,4004.67222 51.5100626,4002.78527 49.0798343,4000.11507 C46.0995857,3996.84053 44.5695938,3992.76871 44.5695937,3986.94079 L34.5695937,3986.94079 C34.5695939,3995.22443 37.0042512,4001.70387 41.684258,4006.846 C45.1375725,4010.64031 48.7471063,4012.99548 55.8373809,4016.73402 C56.0981438,4016.87151 56.3996159,4017.03017 56.9555296,4017.32269 C68.4940129,4023.39749 71.7692888,4026.81564 71.7692885,4035.3974 C71.7692883,4043.54516 67.8644939,4047.10308 54.6183036,4053.22434 C54.3791334,4053.33487 54.1155404,4053.45653 53.6086785,4053.69046 C53.1937109,4053.88202 52.8888708,4054.02297 52.5877395,4054.1626 C44.4372917,4057.94185 40.0498967,4060.49601 36.0052202,4064.47631 C30.5088468,4069.88521 27.6128351,4076.77314 27.6128352,4085.57449 C27.6128352,4094.46038 31.2662203,4102.11363 38.0462101,4109.06416 C43.0251247,4114.16832 48.6790516,4118.20687 58.8218693,4124.4836 C58.9903033,4124.58784 63.4518222,4127.33729 64.7157645,4128.1251 C79.6314419,4137.42193 85.2931436,4143.14211 85.2931441,4150.28483 L95.2931441,4150.28483 L95.2931441,4150.28483 Z" id="Path-13"></path>
            </g>
        </g>
    </g>
</svg>