<?xml version="1.0" encoding="UTF-8" standalone="no"?>
<svg
   xmlns:dc="http://purl.org/dc/elements/1.1/"
   xmlns:cc="http://creativecommons.org/ns#"
   xmlns:rdf="http://www.w3.org/1999/02/22-rdf-syntax-ns#"
   xmlns:svg="http://www.w3.org/2000/svg"
   xmlns="http://www.w3.org/2000/svg"
   viewBox="0 0 221.33333 137.33333"
   height="137.33333"
   width="221.33333"
   xml:space="preserve"
   id="svg2"
   version="1.1"><metadata
     id="metadata8"><rdf:RDF><cc:Work
         rdf:about=""><dc:format>image/svg+xml</dc:format><dc:type
           rdf:resource="http://purl.org/dc/dcmitype/StillImage" /></cc:Work></rdf:RDF></metadata><defs
     id="defs6"><clipPath
       id="clipPath20"
       clipPathUnits="userSpaceOnUse"><path
         id="path18"
         d="m 46.79384,84.84456 c 0.81162,0.27952 1.7516,0.59242 2.80644,0.93037 3.02625,0.96956 6.35249,1.94048 9.86941,2.84624 6.74087,1.73608 13.34561,3.01767 19.47785,3.65583 10.98034,1.14267 19.4047,0.08464 24.10916,-3.28606 5.1382,-3.68144 6.3984,-10.81394 2.1989,-23.27992 C 97.002,41.21042 73.6032,20.1732 48.96768,12.68588 37.78426,9.286976 27.8047,9.285204 20.9267,12.60594 c -7.04269,3.40024 -10.92558,10.29742 -10.92558,21.1957 0,10.80416 4.91016,18.17726 14.54338,22.77356 9.41815,4.49368 23.12135,6.14062 39.6226,4.9005 31.81727,-2.39118 70.5756,-15.32221 96.1152,-31.87023 l 5.4377,8.39235 C 138.7659,55.46228 98.39419,68.93161 64.91652,71.44757 46.82813,72.80698 31.47455,70.96169 20.23825,65.60051 7.20953,59.38411 0.00112261,48.55997 0.00112261,33.80164 0.00112261,5.145056 22.61745,-5.774225 51.87558,3.118016 79.47693,11.50672 105.3989,34.8124 114.7323,62.51856 c 5.4666,16.22731 3.3902,27.97982 -5.8514,34.60124 -7.1837,5.147 -17.77168,6.4768 -30.96842,5.1035 -6.67737,-0.6949 -13.75126,-2.0675 -20.93685,-3.91814 -3.7145,-0.95664 -7.2244,-1.98117 -10.42643,-3.00705 -1.12506,-0.36045 -2.13328,-0.69607 -3.0116,-0.99855 -0.5363,-0.1847 -0.91614,-0.31956 -1.12638,-0.39628 l 3.42792,-9.39411 c 0.15432,0.05631 0.47703,0.17089 0.9547,0.33539 z" /></clipPath><clipPath
       id="clipPath26"
       clipPathUnits="userSpaceOnUse"><path
         id="path24"
         d="M 0.00112261,0.1007404 H 165.71992 V 102.72964 H 0.00112261 Z" /></clipPath><linearGradient
       id="linearGradient34"
       spreadMethod="pad"
       gradientTransform="matrix(1,0,0,-1,0.00112261,102.7296)"
       gradientUnits="userSpaceOnUse"
       y2="1124.4771"
       x2="-95.501007"
       y1="-143.9259"
       x1="1138.963"><stop
         id="stop30"
         offset="0"
         style="stop-opacity:1;stop-color:#8b36ff" /><stop
         id="stop32"
         offset="1"
         style="stop-opacity:1;stop-color:#ffff29" /></linearGradient><clipPath
       id="clipPath44"
       clipPathUnits="userSpaceOnUse"><path
         id="path42"
         d="m 46.79384,84.84456 c 0.81162,0.27952 1.7516,0.59242 2.80644,0.93037 3.02625,0.96956 6.35249,1.94048 9.86941,2.84624 6.74087,1.73608 13.34561,3.01767 19.47785,3.65583 10.98034,1.14267 19.4047,0.08464 24.10916,-3.28606 5.1382,-3.68144 6.3984,-10.81394 2.1989,-23.27992 C 97.002,41.21042 73.6032,20.1732 48.96768,12.68588 37.78426,9.286976 27.8047,9.285204 20.9267,12.60594 c -7.04269,3.40024 -10.92558,10.29742 -10.92558,21.1957 0,10.80416 4.91016,18.17726 14.54338,22.77356 9.41815,4.49368 23.12135,6.14062 39.6226,4.9005 31.81727,-2.39118 70.5756,-15.32221 96.1152,-31.87023 l 5.4377,8.39235 C 138.7659,55.46228 98.39419,68.93161 64.91652,71.44757 46.82813,72.80698 31.47455,70.96169 20.23825,65.60051 7.20953,59.38411 0.00112261,48.55997 0.00112261,33.80164 0.00112261,5.145056 22.61745,-5.774225 51.87558,3.118016 79.47693,11.50672 105.3989,34.8124 114.7323,62.51856 c 5.4666,16.22731 3.3902,27.97982 -5.8514,34.60124 -7.1837,5.147 -17.77168,6.4768 -30.96842,5.1035 -6.67737,-0.6949 -13.75126,-2.0675 -20.93685,-3.91814 -3.7145,-0.95664 -7.2244,-1.98117 -10.42643,-3.00705 -1.12506,-0.36045 -2.13328,-0.69607 -3.0116,-0.99855 -0.5363,-0.1847 -0.91614,-0.31956 -1.12638,-0.39628 l 3.42792,-9.39411 c 0.15432,0.05631 0.47703,0.17089 0.9547,0.33539 z" /></clipPath><clipPath
       id="clipPath50"
       clipPathUnits="userSpaceOnUse"><path
         id="path48"
         d="M -1177,-7579 H 263 V 945 h -1440 z" /></clipPath><linearGradient
       id="linearGradient58"
       spreadMethod="pad"
       gradientTransform="matrix(1,0,0,-1,0.00112261,102.7296)"
       gradientUnits="userSpaceOnUse"
       y2="112.6991"
       x2="-15.45539"
       y1="-14.42476"
       x1="184.3239"><stop
         id="stop54"
         offset="0"
         style="stop-opacity:1;stop-color:#8b36ff" /><stop
         id="stop56"
         offset="1"
         style="stop-opacity:1;stop-color:#ffff29" /></linearGradient></defs><g
     transform="matrix(1.3333333,0,0,-1.3333333,0,137.33333)"
     id="g10"><g
       id="g12" /><g
       id="g14"><g
         clip-path="url(#clipPath20)"
         id="g16"><g
           clip-path="url(#clipPath26)"
           id="g22"><g
             id="g28"><path
               id="path36"
               style="fill:url(#linearGradient34);stroke:none"
               d="M 0.00112261,0.1007404 H 165.71992 V 102.72964 H 0.00112261 Z" /></g></g></g></g><g
       id="g38"><g
         clip-path="url(#clipPath44)"
         id="g40"><g
           clip-path="url(#clipPath50)"
           id="g46"><g
             id="g52"><path
               id="path60"
               style="fill:url(#linearGradient58);stroke:none"
               d="M -1177,-7579 H 263 V 945 h -1440 z" /></g></g></g></g></g></svg>