<?xml version="1.0" encoding="UTF-8" standalone="no"?>
<svg width="157px" height="57px" viewBox="0 0 157 57" version="1.1" xmlns="http://www.w3.org/2000/svg" xmlns:xlink="http://www.w3.org/1999/xlink">
    <!-- Generator: Sketch 3.7 (28169) - http://www.bohemiancoding.com/sketch -->
    <title>Path 02</title>
    <desc>Created with Sketch.</desc>
    <defs>
        <linearGradient x1="50%" y1="0%" x2="50%" y2="100%" id="linearGradient-1">
            <stop stop-color="#6D7AFF" offset="0%"></stop>
            <stop stop-color="#FF4444" offset="100%"></stop>
        </linearGradient>
    </defs>
    <g id="Page-1" stroke="none" stroke-width="1" fill="none" fill-rule="evenodd">
        <g id="objects-1440" transform="translate(-1030.000000, -967.000000)" fill="url(#linearGradient-1)">
            <g id="objects" transform="translate(87.000000, 842.000000)">
                <path d="M1094.28257,147.442243 C1075.69803,159.474901 1050.21411,169.179847 1033.43262,170.862971 C1029.50571,171.256827 1026.27746,171.177862 1023.9492,170.663397 C1022.14449,170.264618 1021.21663,169.709041 1020.91774,169.201845 C1020.61059,168.680652 1020.60207,167.591635 1021.31026,165.639364 C1022.32826,162.833078 1024.60252,159.188036 1028.19437,154.811268 C1037.29541,143.721422 1039.52349,134.500084 1032.84283,128.748308 C1027.72001,124.337766 1018.43966,124.003339 1006.71854,126.703356 C982.972364,132.173403 956.327024,148.082409 943.860581,166.482789 L952.139419,172.091786 C963.046088,155.993621 987.501942,141.39188 1008.9633,136.448152 C1017.81194,134.409826 1024.36632,134.64602 1026.31826,136.326564 C1026.68922,136.645945 1026.80184,137.075985 1026.47818,138.415515 C1025.89488,140.829624 1023.92778,144.246956 1020.46421,148.467402 C1011.59272,159.277539 1008.49474,167.817669 1012.30246,174.278948 C1015.77741,180.175551 1023.58519,181.900804 1034.43058,180.81305 C1052.8934,178.961294 1079.86568,168.689542 1099.71743,155.836427 L1094.28257,147.442243 L1094.28257,147.442243 Z" id="Path-02"></path>
            </g>
        </g>
    </g>
</svg>