<?xml version="1.0" encoding="UTF-8" standalone="no"?>
<svg
   xmlns:dc="http://purl.org/dc/elements/1.1/"
   xmlns:cc="http://creativecommons.org/ns#"
   xmlns:rdf="http://www.w3.org/1999/02/22-rdf-syntax-ns#"
   xmlns:svg="http://www.w3.org/2000/svg"
   xmlns="http://www.w3.org/2000/svg"
   viewBox="0 0 169.33333 124"
   height="124"
   width="169.33333"
   xml:space="preserve"
   id="svg2"
   version="1.1"><metadata
     id="metadata8"><rdf:RDF><cc:Work
         rdf:about=""><dc:format>image/svg+xml</dc:format><dc:type
           rdf:resource="http://purl.org/dc/dcmitype/StillImage" /></cc:Work></rdf:RDF></metadata><defs
     id="defs6"><clipPath
       id="clipPath20"
       clipPathUnits="userSpaceOnUse"><path
         id="path18"
         d="M 1.484191,82.4858 C 18.86822,84.17719 31.58662,81.65495 39.74694,75.85264 46.43574,71.09664 49.92652,64.14387 50.25576,56.00851 50.88438,40.4759 40.00678,25.9387 30.00927,27.55252 c -4.66502,0.75304 -6.47472,2.22707 -6.66106,3.95171 -0.23299,2.15639 1.50963,5.55455 5.13922,8.93156 9.64146,8.9705 26.27481,13.21979 42.9327,8.832 9.35521,-2.46423 14.20396,-5.34231 15.83572,-8.32359 1.09346,-1.99779 0.92552,-4.48788 -0.56879,-8.97817 -0.22564,-0.67801 -0.43868,-1.28707 -0.85714,-2.46188 -1.87837,-5.27348 -2.51355,-7.49316 -2.68344,-10.60053 -0.25624,-4.68678 1.30635,-8.81447 4.97817,-12.16223 5.12573,-4.673367 10.50682,-6.4537116 16.14605,-5.585221 3.9793,0.612838 6.7903,1.966706 12.5073,5.404443 0.8662,0.520844 1.1125,0.66845 1.5202,0.910015 3.9714,2.352584 6.2517,3.276233 8.3223,3.276233 v 10 c -4.3936,0 -7.9914,-1.45734 -13.4189,-4.67252 -0.4343,-0.25723 -0.6896,-0.41028 -1.5768,-0.94378 -8.7089,-5.236786 -11.623,-5.685591 -16.76269,-0.99954 -2.44862,2.23251 -2.33098,4.38407 0.38806,12.0177 0.441,1.23809 0.67102,1.8957 0.92527,2.65969 C 101.1349,43.71132 95.97356,53.14135 73.96731,58.93794 53.97789,64.20328 33.81615,59.0526 21.6757,47.75701 8.859983,35.83315 10.50902,20.57085 28.41567,17.68031 45.79992,14.87411 61.10111,35.32315 60.24758,56.41289 59.79754,67.53293 54.85254,77.38216 45.54179,84.00247 35.20233,91.35423 20.11686,94.34589 0.5158086,92.4388 l 0.9683824,-9.953 z" /></clipPath><clipPath
       id="clipPath26"
       clipPathUnits="userSpaceOnUse"><path
         id="path24"
         d="M 0.5158086,0.9436644 H 126.62051 V 92.999664 H 0.5158086 Z" /></clipPath><linearGradient
       id="linearGradient34"
       spreadMethod="pad"
       gradientTransform="matrix(1,0,0,-1,0.5158086,92.99966)"
       gradientUnits="userSpaceOnUse"
       y2="1024"
       x2="512"
       y1="0"
       x1="512"><stop
         id="stop30"
         offset="0"
         style="stop-opacity:1;stop-color:#ec5bc3" /><stop
         id="stop32"
         offset="1"
         style="stop-opacity:1;stop-color:#00c3dc" /></linearGradient><clipPath
       id="clipPath44"
       clipPathUnits="userSpaceOnUse"><path
         id="path42"
         d="M 1.484191,82.4858 C 18.86822,84.17719 31.58662,81.65495 39.74694,75.85264 46.43574,71.09664 49.92652,64.14387 50.25576,56.00851 50.88438,40.4759 40.00678,25.9387 30.00927,27.55252 c -4.66502,0.75304 -6.47472,2.22707 -6.66106,3.95171 -0.23299,2.15639 1.50963,5.55455 5.13922,8.93156 9.64146,8.9705 26.27481,13.21979 42.9327,8.832 9.35521,-2.46423 14.20396,-5.34231 15.83572,-8.32359 1.09346,-1.99779 0.92552,-4.48788 -0.56879,-8.97817 -0.22564,-0.67801 -0.43868,-1.28707 -0.85714,-2.46188 -1.87837,-5.27348 -2.51355,-7.49316 -2.68344,-10.60053 -0.25624,-4.68678 1.30635,-8.81447 4.97817,-12.16223 5.12573,-4.673367 10.50682,-6.4537116 16.14605,-5.585221 3.9793,0.612838 6.7903,1.966706 12.5073,5.404443 0.8662,0.520844 1.1125,0.66845 1.5202,0.910015 3.9714,2.352584 6.2517,3.276233 8.3223,3.276233 v 10 c -4.3936,0 -7.9914,-1.45734 -13.4189,-4.67252 -0.4343,-0.25723 -0.6896,-0.41028 -1.5768,-0.94378 -8.7089,-5.236786 -11.623,-5.685591 -16.76269,-0.99954 -2.44862,2.23251 -2.33098,4.38407 0.38806,12.0177 0.441,1.23809 0.67102,1.8957 0.92527,2.65969 C 101.1349,43.71132 95.97356,53.14135 73.96731,58.93794 53.97789,64.20328 33.81615,59.0526 21.6757,47.75701 8.859983,35.83315 10.50902,20.57085 28.41567,17.68031 45.79992,14.87411 61.10111,35.32315 60.24758,56.41289 59.79754,67.53293 54.85254,77.38216 45.54179,84.00247 35.20233,91.35423 20.11686,94.34589 0.5158086,92.4388 l 0.9683824,-9.953 z" /></clipPath><clipPath
       id="clipPath50"
       clipPathUnits="userSpaceOnUse"><path
         id="path48"
         d="M -1252,-6375 H 188 v 8524 h -1440 z" /></clipPath><linearGradient
       id="linearGradient58"
       spreadMethod="pad"
       gradientTransform="matrix(1,0,0,-1,0.5158086,92.99966)"
       gradientUnits="userSpaceOnUse"
       y2="92.056"
       x2="63.052349"
       y1="0"
       x1="63.052349"><stop
         id="stop54"
         offset="0"
         style="stop-opacity:1;stop-color:#ec5bc3" /><stop
         id="stop56"
         offset="1"
         style="stop-opacity:1;stop-color:#00c3dc" /></linearGradient></defs><g
     transform="matrix(1.3333333,0,0,-1.3333333,0,124)"
     id="g10"><g
       id="g12" /><g
       id="g14"><g
         clip-path="url(#clipPath20)"
         id="g16"><g
           clip-path="url(#clipPath26)"
           id="g22"><g
             id="g28"><path
               id="path36"
               style="fill:url(#linearGradient34);stroke:none"
               d="M 0.5158086,0.9436644 H 126.62051 V 92.999664 H 0.5158086 Z" /></g></g></g></g><g
       id="g38"><g
         clip-path="url(#clipPath44)"
         id="g40"><g
           clip-path="url(#clipPath50)"
           id="g46"><g
             id="g52"><path
               id="path60"
               style="fill:url(#linearGradient58);stroke:none"
               d="M -1252,-6375 H 188 v 8524 h -1440 z" /></g></g></g></g></g></svg>