<?xml version="1.0" standalone="no"?>
<!DOCTYPE svg PUBLIC "-//W3C//DTD SVG 20010904//EN"
 "http://www.w3.org/TR/2001/REC-SVG-20010904/DTD/svg10.dtd">
<svg version="1.0" xmlns="http://www.w3.org/2000/svg"
 width="700.000000pt" height="700.000000pt" viewBox="0 0 700.000000 700.000000"
 preserveAspectRatio="xMidYMid meet">
<metadata>
Created by potrace 1.11, written by Peter Selinger 2001-2013
</metadata>
<g transform="translate(0.000000,700.000000) scale(0.100000,-0.100000)"
fill="#000000" stroke="none">
<path d="M1760 5634 c-43 -8 -78 -25 -84 -41 -15 -39 39 -56 224 -72 138 -12
179 -23 220 -58 67 -56 61 103 67 -1942 4 -1331 3 -1879 -5 -1937 -23 -169
-52 -191 -281 -204 -162 -10 -221 -25 -221 -58 0 -49 -31 -47 999 -46 1118 2
1208 7 1571 81 307 62 504 158 676 328 176 174 269 375 293 629 19 197 -15
389 -99 561 -58 119 -104 183 -208 288 -175 178 -406 285 -834 387 -88 21
-135 37 -132 44 2 6 59 24 127 40 400 93 668 250 821 480 109 164 159 391 136
620 -22 227 -87 379 -223 522 -168 178 -407 282 -778 341 -89 14 -256 17
-1144 24 -572 4 -1053 10 -1070 12 -16 3 -41 3 -55 1z m1865 -124 c135 -20
255 -97 334 -216 42 -64 86 -181 111 -300 28 -125 39 -494 20 -656 -46 -404
-179 -574 -510 -652 -109 -26 -278 -46 -387 -46 l-63 0 0 853 c1 901 1 898 47
949 36 40 91 59 197 67 147 12 173 12 251 1z m-89 -1996 c218 -32 313 -73 424
-184 178 -177 253 -441 254 -890 0 -306 -37 -500 -131 -684 -63 -123 -175
-237 -283 -289 -119 -57 -192 -71 -365 -71 -137 0 -155 2 -210 24 -53 22 -61
30 -73 64 -26 81 -35 521 -23 1151 6 330 9 669 5 754 l-7 154 154 -7 c85 -4
200 -13 255 -22z"/>
</g>
</svg>
