<svg version="1.1" xmlns="http://www.w3.org/2000/svg" xmlns:xlink="http://www.w3.org/1999/xlink">
            <title>s_logo</title>
            <path class="path1" d="M709.798 1015.248c2.626-0.875 5.251-2.626 8.752-3.501 56.014-23.631 104.15-58.639 141.785-106.776 32.383-40.26 52.513-86.646 61.265-136.533 6.126-35.009 7.877-70.017 4.376-105.901-3.501-36.759-11.378-71.768-27.132-105.026-31.508-67.391-83.145-112.903-152.287-137.409-31.508-11.378-64.766-19.255-98.024-26.256-45.511-9.627-91.022-16.629-136.533-23.631-28.882-4.376-57.764-7.877-85.771-14.879-12.253-3.501-25.381-7.002-36.759-11.378-32.383-12.253-48.137-42.010-44.636-76.144 0.875-6.126 1.75-12.253 3.501-17.504 4.376-16.629 14.003-29.757 28.007-39.385 14.879-10.503 30.632-15.754 48.137-19.255 29.757-6.126 59.515-7.002 89.272-4.376 20.13 1.75 40.26 5.251 59.515 13.128 42.010 15.754 71.768 44.636 90.147 84.896 4.376 10.503 7.877 21.88 12.253 32.383 0.875 1.75 0.875 3.501 1.75 5.251 69.142-19.255 138.284-38.509 208.301-57.764 0-0.875 0-1.75-0.875-2.626-15.754-44.636-36.759-87.521-65.641-126.031-42.885-57.764-98.899-96.274-167.166-115.528-2.626-0.875-5.251-1.75-7.877-2.626 13.128-0.875 83.145 22.756 119.029 40.26 38.509 18.379 73.518 42.010 105.901 69.142s61.265 57.764 86.646 91.897c25.381 34.133 45.511 70.892 62.14 110.277 15.754 39.385 27.132 79.644 33.258 121.655 37.634 275.692-140.034 497.121-341.333 563.638z"></path>
            <path class="path2" d="M292.321 715.050c-76.144 11.378-152.287 23.631-228.431 35.009-41.135-87.521-57.764-178.544-48.137-274.817 7.877-87.521 37.634-168.041 86.646-240.684-1.75 7.002-3.501 13.128-5.251 20.13-6.126 27.132-8.752 54.263-7.877 82.27 0 29.757 3.501 59.515 12.253 88.397 21.005 72.643 63.891 126.031 131.282 161.039 31.508 15.754 64.766 28.007 98.899 37.634 42.010 12.253 84.021 21.88 126.906 29.757 38.509 7.002 77.894 13.128 116.403 17.504 18.379 2.626 35.884 7.002 53.388 14.003 9.627 4.376 17.504 8.752 25.381 15.754 14.003 12.253 21.005 28.007 22.756 46.386 1.75 26.256-7.877 47.262-28.007 63.891-14.879 12.253-32.383 20.13-50.762 27.132-20.13 7.002-40.26 10.503-61.265 12.253-33.258 2.626-66.516 0.875-98.899-4.376-18.379-3.501-36.759-8.752-53.388-16.629-45.511-20.13-75.268-55.138-88.397-103.275-0.875-3.501-1.75-6.126-2.626-9.627 0-0.875 0-0.875-0.875-1.75z"></path>
            <path class="path3" d="M1295.316 628.403c17.504 10.503 50.762 21.88 77.894 21.88 34.133 0 49.012-14.003 49.012-34.133 0-21.005-12.253-31.508-49.887-44.636-59.515-21.005-84.021-53.388-84.021-88.397 0-53.388 44.636-95.398 114.653-95.398 34.133 0 63.015 8.752 80.52 18.379l-14.879 54.263c-13.128-7.877-37.634-17.504-63.891-17.504-27.132 0-42.010 13.128-42.010 31.508 0 19.255 14.003 28.882 53.388 42.010 55.138 20.13 80.52 48.137 81.395 92.773 0 55.138-42.885 94.523-123.405 94.523-36.759 0-70.017-8.752-92.773-21.005l14.003-54.263z"></path>
            <path class="path4" d="M1613.894 568.889c1.75 55.138 44.636 78.769 93.648 78.769 35.884 0 61.265-5.251 84.021-14.003l11.378 53.388c-26.256 10.503-62.14 18.379-105.901 18.379-98.899 0-156.663-60.39-156.663-153.162 0-84.021 50.762-163.665 148.786-163.665 98.899 0 131.282 81.395 131.282 147.911 0 14.003-0.875 25.381-2.626 32.383h-203.925zM1746.926 514.626c0.875-28.007-12.253-74.393-63.015-74.393-47.262 0-67.391 42.885-70.892 74.393h133.908z"></path>
            <path class="path5" d="M1881.709 496.246c0-40.26-0.875-72.643-2.626-101.525h67.391l3.501 46.386h0.875c22.756-34.133 57.764-53.388 104.15-53.388 70.017 0 127.781 59.515 127.781 154.913 0 109.402-69.142 162.79-138.284 162.79-37.634 0-70.017-16.629-85.771-40.26h-0.875v157.538h-76.144v-326.455zM1957.853 571.515c0 7.877 0.875 14.003 2.626 21.005 7.877 31.508 35.009 53.388 67.391 53.388 49.012 0 77.019-40.26 77.019-100.65 0-53.388-26.256-97.149-75.268-97.149-31.508 0-61.265 22.756-68.267 56.889-1.75 6.126-3.501 13.128-3.501 19.255v47.262z"></path>
            <path class="path6" d="M2417.34 699.296l-5.251-34.133h-1.75c-18.379 23.631-50.762 40.26-90.147 40.26-61.265 0-95.398-44.636-95.398-90.147 0-77.019 68.267-115.528 180.294-114.653v-5.251c0-20.13-7.877-53.388-62.14-53.388-29.757 0-61.265 9.627-81.395 22.756l-14.879-49.887c22.756-14.003 62.14-27.132 109.402-27.132 97.149 0 125.156 62.14 125.156 127.781v109.402c0 27.132 0.875 54.263 4.376 72.643h-68.267zM2407.713 550.509c-54.263-0.875-105.901 10.503-105.901 56.889 0 29.757 19.255 43.761 43.761 43.761 30.632 0 53.388-20.13 59.515-42.010 1.75-5.251 2.626-12.253 2.626-16.629v-42.010z"></path>
            <path class="path7" d="M2563.501 492.745c0-41.135-0.875-70.892-2.626-98.024h66.516l2.626 57.764h2.626c14.879-42.885 50.762-64.766 83.145-64.766 7.877 0 12.253 0.875 18.379 1.75v72.643c-6.126-0.875-13.128-2.626-22.756-2.626-36.759 0-62.14 23.631-68.267 57.764-0.875 7.002-2.626 14.879-2.626 23.631v157.538h-77.019v-205.675z"></path>
            <path class="path8" d="M2951.221 699.296l-5.251-34.133h-1.75c-18.379 23.631-50.762 40.26-90.147 40.26-61.265 0-95.398-44.636-95.398-90.147 0-77.019 68.267-115.528 180.294-114.653v-5.251c0-20.13-7.877-53.388-62.14-53.388-29.757 0-61.265 9.627-81.395 22.756l-14.879-49.887c22.756-14.003 62.14-27.132 109.402-27.132 97.149 0 125.156 62.14 125.156 127.781v109.402c0 27.132 0.875 54.263 4.376 72.643h-68.267zM2941.593 550.509c-54.263-0.875-105.901 10.503-105.901 56.889 0 29.757 19.255 43.761 43.761 43.761 30.632 0 53.388-20.13 59.515-42.010 1.75-5.251 2.626-12.253 2.626-16.629v-42.010z"></path>
            <path class="path9" d="M3181.402 308.075v86.646h72.643v57.764h-72.643v133.908c0 36.759 9.627 56.014 39.385 56.014 13.128 0 22.756-1.75 29.757-3.501l0.875 58.639c-11.378 4.376-31.508 7.877-55.138 7.877-28.007 0-51.638-9.627-66.516-25.381-16.629-17.504-23.631-44.636-23.631-84.896v-142.66h-43.761v-57.764h43.761v-68.267l75.268-18.379z"></path>
            <path class="path10" d="M3363.446 568.889c1.75 55.138 44.636 78.769 93.648 78.769 35.884 0 61.265-5.251 84.021-14.003l11.378 53.388c-26.256 10.503-62.14 18.379-105.901 18.379-98.899 0-156.663-60.39-156.663-153.162 0-84.021 50.762-163.665 148.786-163.665 98.899 0 131.282 81.395 131.282 147.911 0 14.003-0.875 25.381-2.626 32.383h-203.925zM3496.479 514.626c0.875-28.007-12.253-74.393-63.015-74.393-47.262 0-67.391 42.885-70.892 74.393h133.908z"></path>
            <path class="path11" d="M3621.634 666.913c0-22.756 15.754-39.385 37.634-39.385s36.759 16.629 36.759 39.385c0 22.756-14.003 39.385-37.634 39.385-21.005 0-36.759-17.504-36.759-39.385z"></path>
            <path class="path12" d="M4017.231 617.026c0 31.508 0.875 58.639 2.626 82.27h-49.012l-3.501-49.012h-0.875c-14.003 24.506-46.386 56.014-99.774 56.014-47.262 0-104.15-26.256-104.15-132.157v-176.793h55.138v167.166c0 57.764 17.504 96.274 67.391 96.274 36.759 0 62.14-25.381 72.643-49.887 3.501-7.877 5.251-18.379 5.251-28.007v-185.545h55.138v219.679z"></path>
            <path class="path13" d="M4100.376 643.282c16.629 10.503 44.636 21.88 72.643 21.88 40.26 0 58.639-20.13 58.639-44.636 0-26.256-15.754-40.26-56.014-55.138-54.263-19.255-79.644-49.012-79.644-85.771 0-49.012 39.385-88.397 104.15-88.397 30.632 0 57.764 8.752 74.393 18.379l-14.003 40.26c-12.253-7.877-34.133-17.504-62.14-17.504-32.383 0-50.762 18.379-50.762 41.135 0 25.381 18.379 35.884 57.764 50.762 52.513 20.13 79.644 46.386 79.644 91.022 0 53.388-41.135 90.147-112.903 90.147-33.258 0-63.891-7.877-84.896-21.005l13.128-41.135z"></path>
</svg>